<svg xmlns="http://www.w3.org/2000/svg" xmlns:xlink="http://www.w3.org/1999/xlink" id="Layer_1" enable-background="new 0 0 100 100" viewBox="0 0 100 100"><symbol id="navbar_x5F_icon_x5F_back_1_" viewBox="-1 -24 25 24"><path fill="none" stroke="#fff" stroke-miterlimit="10" stroke-width="2" d="M18-19c0-0.4,0-0.5-0.3-0.3l-12,7c-0.3,0.2-0.2,0.5,0.1,0.6l11.9,7C18-4.5,18-4.7,18-5V-19z" opacity=".9"/><rect width="24" height="24" y="-24" fill="none"/><rect width="25" height="24" x="-1" y="-24" fill="none" display="none"/></symbol><symbol id="navbar_x5F_icon_x5F_home_1_" viewBox="0 -24 24 24"><g opacity=".9"><g id="XMLID_809_"><circle id="XMLID_814_" cx="12" cy="-12" r="6.9" fill="none" stroke="#fff" stroke-miterlimit="10" stroke-width="1.803"/></g></g><rect width="24" height="24" y="-24" fill="none"/><rect width="24" height="23" y="-24" fill="none" display="none"/></symbol><symbol id="navbar_x5F_icon_x5F_recents_1_" viewBox="0 -24 24 24"><path fill="none" stroke="#fff" stroke-miterlimit="10" stroke-width="2" d="M19-5.7C19-5.4,18.6-5,18.2-5H5.8C5.4-5,5-5.4,5-5.7v-12.6C5-18.6,5.4-19,5.8-19h12.4      c0.4,0,0.8,0.4,0.8,0.7V-5.7z" opacity=".9"/><rect width="24" height="24" y="-24" fill="none"/><rect width="24" height="23" y="-24" fill="none" display="none"/></symbol><symbol id="sysbar_x5F_status_2" viewBox="0 -24 360 24"><use id="XMLID_495_" width="360" height="24" y="-24" overflow="visible" xlink:href="#sysbar_x5F_status_x5F_used_x5F_light"/></symbol><symbol id="sysbar_x5F_status_x5F_used_x5F_light" viewBox="0 -24 360 24"><rect width="360" height="24" y="-24" fill="#010101" fill-opacity="0"/><rect width="40" height="16" x="312" y="-21" fill="none" opacity=".9"/><path fill="#fff" d="M266-19l8.8,10.9C274.5-7.8,271.1-5,266-5s-8.5-2.8-8.8-3.1L266-19L266-19L266-19L266-19L266-19z" opacity=".9"/><rect width="16" height="16" x="258" y="-20" fill="none"/><polygon fill="#fff" points="277 -19 291 -19 291 -5" opacity=".9"/><rect width="16" height="16" x="276" y="-20" fill="none"/><g><rect width="16" height="16" x="296" y="-20" fill="none"/><path fill="#fff" d="M306-6v1h-3v-1h-3v-13h9v13H306z" opacity=".9"/></g></symbol><path id="XMLID_1022_" fill="#594454" d="M83,91H17c-0.3,0-0.5-0.2-0.5-0.5S16.7,90,17,90h66c0.3,0,0.5,0.2,0.5,0.5S83.3,91,83,91z"/><path id="XMLID_1391_" fill="#f79a6c" d="M53,55.5v-7c0-0.9,0.4-1.8,1.2-2.4l0.8-0.6l0.8,0.6c0.8,0.6,1.2,1.5,1.2,2.4v7"/><path id="XMLID_1390_" fill="#f79a6c" d="M47,47.1v-9.4c0-0.9,0.5-1.8,1.3-2.2l1.7-1l1.7,1c0.8,0.5,1.3,1.3,1.3,2.2v9.4"/><path id="XMLID_1389_" fill="#f79a6c" d="M53,49.5v-11c0-0.9,0.4-1.8,1.2-2.4l0.8-0.6l0.8,0.6c0.8,0.6,1.2,1.5,1.2,2.4v11"/><path id="XMLID_1388_" fill="#f79a6c" d="M43,48.5v-10c0-0.9,0.4-1.8,1.2-2.4l0.8-0.6l0.8,0.6c0.8,0.6,1.2,1.5,1.2,2.4v10"/><path id="XMLID_1387_" fill="#f79a6c" d="M47,56.6v-8.9c0-0.9,0.5-1.8,1.3-2.2l1.7-1l1.7,1c0.8,0.5,1.3,1.3,1.3,2.2v8.9"/><path id="XMLID_1382_" fill="#f79a6c" d="M57,49.1v-8.4c0-0.9,0.5-1.8,1.3-2.2l1.7-1l1.7,1c0.8,0.5,1.3,1.3,1.3,2.2v8.4"/><path id="XMLID_1380_" fill="#f79a6c" d="M57,59.1v-9.4c0-0.9,0.5-1.8,1.3-2.2l1.7-1l1.7,1c0.8,0.5,1.3,1.3,1.3,2.2v9.4"/><path id="XMLID_1379_" fill="#f79a6c" d="M37,49.1v-8.4c0-0.9,0.5-1.8,1.3-2.2l1.7-1l1.7,1c0.8,0.5,1.3,1.3,1.3,2.2v8.4"/><path id="XMLID_1377_" fill="#f79a6c" d="M37,58.1v-8.4c0-0.9,0.5-1.8,1.3-2.2l1.7-1l1.7,1c0.8,0.5,1.3,1.3,1.3,2.2v8.4"/><path id="XMLID_1376_" fill="#f79a6c" d="M77,60.1v-5.4c0-0.9-0.5-1.8-1.3-2.2l-1.7-1l-1.7,1c-0.8,0.5-1.3,1.3-1.3,2.2v5.4"/><path id="XMLID_1375_" fill="#f79a6c" d="M43,58.5v-10c0-0.9,0.4-1.8,1.2-2.4l0.8-0.6l0.8,0.6c0.8,0.6,1.2,1.5,1.2,2.4v10"/><path id="XMLID_1374_" fill="#f79a6c" d="M33,49.5v-7c0-0.9,0.4-1.8,1.2-2.4l0.8-0.6l0.8,0.6c0.8,0.6,1.2,1.5,1.2,2.4v7"/><path id="XMLID_1373_" fill="#f79a6c" d="M67,58.5v-7c0-0.9-0.4-1.8-1.2-2.4L65,48.5l-0.8,0.6c-0.8,0.6-1.2,1.5-1.2,2.4v7"/><path id="XMLID_1372_" fill="#f79a6c" d="M67,49.5v-7c0-0.9-0.4-1.8-1.2-2.4L65,39.5l-0.8,0.6c-0.8,0.6-1.2,1.5-1.2,2.4v7"/><path id="XMLID_1370_" fill="#f79a6c" d="M71,59.5v-7c0-0.9-0.4-1.8-1.2-2.4L69,49.5l-0.8,0.6c-0.8,0.6-1.2,1.5-1.2,2.4v7"/><path id="XMLID_1369_" fill="#f79a6c" d="M71,52.5v-7c0-0.9-0.4-1.8-1.2-2.4L69,42.5l-0.8,0.6c-0.8,0.6-1.2,1.5-1.2,2.4v7"/><path id="XMLID_1368_" fill="#f79a6c" d="M81,62.5v-7c0-0.9-0.4-1.8-1.2-2.4L79,52.5l-0.8,0.6c-0.8,0.6-1.2,1.5-1.2,2.4v7"/><path id="XMLID_1367_" fill="#f79a6c" d="M77,56.1v-5.4c0-0.9-0.5-1.8-1.3-2.2l-1.7-1l-1.7,1c-0.8,0.5-1.3,1.3-1.3,2.2v5.4"/><path id="XMLID_1366_" fill="#f79a6c" d="M23,56.1v-5.4c0-0.9,0.5-1.8,1.3-2.2l1.7-1l1.7,1c0.8,0.5,1.3,1.3,1.3,2.2v5.4"/><path id="XMLID_1360_" fill="#f79a6c" d="M23,60.1v-5.4c0-0.9,0.5-1.8,1.3-2.2l1.7-1l1.7,1c0.8,0.5,1.3,1.3,1.3,2.2v5.4"/><path id="XMLID_1359_" fill="#f79a6c" d="M33,58.5v-7c0-0.9,0.4-1.8,1.2-2.4l0.8-0.6l0.8,0.6c0.8,0.6,1.2,1.5,1.2,2.4v7"/><path id="XMLID_1358_" fill="#f79a6c" d="M29,59.5v-7c0-0.9,0.4-1.8,1.2-2.4l0.8-0.6l0.8,0.6c0.8,0.6,1.2,1.5,1.2,2.4v7"/><path id="XMLID_1357_" fill="#f79a6c" d="M29,52.5v-7c0-0.9,0.4-1.8,1.2-2.4l0.8-0.6l0.8,0.6c0.8,0.6,1.2,1.5,1.2,2.4v7"/><path id="XMLID_1356_" fill="#f79a6c" d="M19,62.5v-7c0-0.9,0.4-1.8,1.2-2.4l0.8-0.6l0.8,0.6c0.8,0.6,1.2,1.5,1.2,2.4v7"/><path id="XMLID_1350_" fill="#f79a6c" d="M43,68.5v-11c0-0.9,0.4-1.8,1.2-2.4l0.8-0.6l0.8,0.6c0.8,0.6,1.2,1.5,1.2,2.4v11"/><path id="XMLID_1349_" fill="#f79a6c" d="M37,74.5h-4v-7c0-0.9,0.4-1.8,1.2-2.4l0.8-0.6l0.8,0.6c0.8,0.6,1.2,1.5,1.2,2.4V74.5z"/><path id="XMLID_1348_" fill="#f79a6c" d="M37,66.6v-7.9c0-0.9,0.5-1.8,1.3-2.2l1.7-1l1.7,1c0.8,0.5,1.3,1.3,1.3,2.2v7.9"/><path id="XMLID_1347_" fill="#f79a6c" d="M19,69.5v-7c0-0.9,0.4-1.8,1.2-2.4l0.8-0.6l0.8,0.6c0.8,0.6,1.2,1.5,1.2,2.4v7"/><path id="XMLID_1343_" fill="#f79a6c" d="M23,67.1v-5.4c0-0.9,0.5-1.8,1.3-2.2l1.7-1l1.7,1c0.8,0.5,1.3,1.3,1.3,2.2v5.4"/><path id="XMLID_1342_" fill="#f79a6c" d="M47,66.1v-8.4c0-0.9,0.5-1.8,1.3-2.2l1.7-1l1.7,1c0.8,0.5,1.3,1.3,1.3,2.2v8.9"/><path id="XMLID_1341_" fill="#f79a6c" d="M57,66.6v-7.9c0-0.9,0.5-1.8,1.3-2.2l1.7-1l1.7,1c0.8,0.5,1.3,1.3,1.3,2.2v7.9"/><path id="XMLID_1340_" fill="#f79a6c" d="M77,67.1v-5.4c0-0.9-0.5-1.8-1.3-2.2l-1.7-1l-1.7,1c-0.8,0.5-1.3,1.3-1.3,2.2v5.4"/><path id="XMLID_1333_" fill="#f79a6c" d="M33,66.5v-7c0-0.9,0.4-1.8,1.2-2.4l0.8-0.6l0.8,0.6c0.8,0.6,1.2,1.5,1.2,2.4v7"/><path id="XMLID_1332_" fill="#f79a6c" d="M29,67.5v-7c0-0.9,0.4-1.8,1.2-2.4l0.8-0.6l0.8,0.6c0.8,0.6,1.2,1.5,1.2,2.4v7"/><path id="XMLID_1330_" fill="#f79a6c" d="M53,67.5v-10c0-0.9,0.4-1.8,1.2-2.4l0.8-0.6l0.8,0.6c0.8,0.6,1.2,1.5,1.2,2.4v10"/><path id="XMLID_1327_" fill="#f79a6c" d="M67,66.5v-7c0-0.9-0.4-1.8-1.2-2.4L65,56.5l-0.8,0.6c-0.8,0.6-1.2,1.5-1.2,2.4v7"/><path id="XMLID_1325_" fill="#f79a6c" d="M71,67.5v-7c0-0.9-0.4-1.8-1.2-2.4L69,57.5l-0.8,0.6c-0.8,0.6-1.2,1.5-1.2,2.4v7"/><path id="XMLID_1324_" fill="#f79a6c" d="M81,69.5v-7c0-0.9-0.4-1.8-1.2-2.4L79,59.5l-0.8,0.6c-0.8,0.6-1.2,1.5-1.2,2.4v7"/><path id="XMLID_1323_" fill="#f79a6c" d="M47,74.6v-6.9c0-0.9,0.5-1.8,1.3-2.2l1.7-1l1.7,1c0.8,0.5,1.3,1.3,1.3,2.2v6.9"/><path id="XMLID_1322_" fill="#f79a6c" d="M57,74.6v-6.9c0-0.9,0.5-1.8,1.3-2.2l1.7-1l1.7,1c0.8,0.5,1.3,1.3,1.3,2.2v6.9"/><path id="XMLID_1320_" fill="#f79a6c" d="M77,74.1v-5.4c0-0.9-0.5-1.8-1.3-2.2l-1.7-1l-1.7,1c-0.8,0.5-1.3,1.3-1.3,2.2v5.4"/><path id="XMLID_1319_" fill="#f79a6c" d="M47,74.5h-4v-7c0-0.9,0.4-1.8,1.2-2.4l0.8-0.6l0.8,0.6c0.8,0.6,1.2,1.5,1.2,2.4V74.5z"/><path id="XMLID_1318_" fill="#f79a6c" d="M33,74.5h-4v-7c0-0.9,0.4-1.8,1.2-2.4l0.8-0.6l0.8,0.6c0.8,0.6,1.2,1.5,1.2,2.4V74.5z"/><path id="XMLID_1317_" fill="#f79a6c" d="M57,74.5h-4v-7c0-0.9,0.4-1.8,1.2-2.4l0.8-0.6l0.8,0.6c0.8,0.6,1.2,1.5,1.2,2.4V74.5z"/><path id="XMLID_1314_" fill="#f79a6c" d="M63,74.5h4v-7c0-0.9-0.4-1.8-1.2-2.4L65,64.5l-0.8,0.6c-0.8,0.6-1.2,1.5-1.2,2.4V74.5z"/><path id="XMLID_1311_" fill="#f79a6c" d="M67,74.5h4v-7c0-0.9-0.4-1.8-1.2-2.4L69,64.5l-0.8,0.6c-0.8,0.6-1.2,1.5-1.2,2.4V74.5z"/><path id="XMLID_1303_" fill="#f79a6c" d="M81,74.5v-5c0-0.9-0.4-1.8-1.2-2.4L79,66.5l-0.8,0.6c-0.8,0.6-1.2,1.5-1.2,2.4v5"/><path id="XMLID_1302_" fill="#f79a6c" d="M37,74.6v-6.9c0-0.9,0.5-1.8,1.3-2.2l1.7-1l1.7,1c0.8,0.5,1.3,1.3,1.3,2.2v6.9"/><path id="XMLID_1301_" fill="#f79a6c" d="M23,74.1v-5.4c0-0.9,0.5-1.8,1.3-2.2l1.7-1l1.7,1c0.8,0.5,1.3,1.3,1.3,2.2v5.4"/><rect width="1.5" height="7" x="27.5" y="67.5" fill="#fcbf7f"/><rect width="1.5" height="7" x="23" y="67.5" fill="#f17e5b"/><path id="XMLID_1300_" fill="#f79a6c" d="M19,74.5v-5c0-0.9,0.4-1.8,1.2-2.4l0.8-0.6l0.8,0.6c0.8,0.6,1.2,1.5,1.2,2.4v5"/><rect width="1.5" height="6.1" x="18.5" y="68.5" fill="#f17e5b"/><rect width="1.5" height="6.1" x="22" y="68.5" fill="#fcbf7f"/><rect width="1.5" height="8" x="41.5" y="66.5" fill="#fcbf7f"/><rect width="1.5" height="8" x="37" y="66.5" fill="#f17e5b"/><rect width="1.5" height="8.4" x="32.5" y="66.2" fill="#f17e5b"/><rect width="1.5" height="8.4" x="36" y="66.2" fill="#fcbf7f"/><rect width="1.5" height="8" x="51.5" y="66.5" fill="#fcbf7f"/><rect width="1.5" height="8" x="47" y="66.5" fill="#f17e5b"/><rect width="1.5" height="8.4" x="42.5" y="66.2" fill="#f17e5b"/><rect width="1.5" height="8.4" x="46" y="66.2" fill="#fcbf7f"/><rect width="1.5" height="8" x="61.5" y="66.5" fill="#fcbf7f"/><rect width="1.5" height="8" x="57" y="66.5" fill="#f17e5b"/><rect width="1.5" height="8.4" x="52.5" y="66.2" fill="#f17e5b"/><rect width="1.5" height="8.4" x="56" y="66.2" fill="#fcbf7f"/><rect width="1.5" height="8" x="75.5" y="66.5" fill="#fcbf7f"/><rect width="1.5" height="8" x="71" y="66.5" fill="#f17e5b"/><rect width="1.5" height="8.4" x="66.5" y="66.2" fill="#f17e5b"/><rect width="1.5" height="8.4" x="70" y="66.2" fill="#fcbf7f"/><rect width="1.5" height="5.8" x="76.5" y="68.8" fill="#f17e5b"/><rect width="1.5" height="5.8" x="80" y="68.8" fill="#fcbf7f"/><rect width="1.5" height="8.4" x="28.5" y="66.2" fill="#f17e5b"/><rect width="1.5" height="8.4" x="32" y="66.2" fill="#fcbf7f"/><rect width="1.5" height="8.4" x="62.5" y="66.2" fill="#f17e5b"/><rect width="1.5" height="8.4" x="66" y="66.2" fill="#fcbf7f"/><rect width="1.5" height="7" x="27.5" y="60.5" fill="#fcbf7f"/><rect width="1.5" height="7" x="23" y="60.5" fill="#f17e5b"/><rect width="1.5" height="6.1" x="18.5" y="61.5" fill="#f17e5b"/><rect width="1.5" height="6.1" x="22" y="61.5" fill="#fcbf7f"/><rect width="1.5" height="7.9" x="41.5" y="57.6" fill="#fcbf7f"/><rect width="1.5" height="8" x="37" y="57.6" fill="#f17e5b"/><rect width="1.5" height="7.3" x="32.5" y="58.7" fill="#f17e5b"/><rect width="1.5" height="7.3" x="36" y="58.7" fill="#fcbf7f"/><rect width="1.5" height="8.9" x="51.5" y="56.6" fill="#fcbf7f"/><rect width="1.5" height="9.2" x="47" y="56.8" fill="#f17e5b"/><rect width="1.5" height="8.8" x="42.5" y="56.7" fill="#f17e5b"/><rect width="1.5" height="8.7" x="46" y="56.7" fill="#fcbf7f"/><rect width="1.5" height="8" x="61.5" y="58" fill="#fcbf7f"/><rect width="1.5" height="8" x="57" y="58" fill="#f17e5b"/><rect width="1.5" height="9" x="52.5" y="56.6" fill="#f17e5b"/><rect width="1.5" height="8.9" x="56" y="56.6" fill="#fcbf7f"/><rect width="1.5" height="8" x="75.5" y="59.5" fill="#fcbf7f"/><rect width="1.5" height="8" x="71" y="59.5" fill="#f17e5b"/><rect width="1.5" height="8.4" x="66.5" y="59.2" fill="#f17e5b"/><rect width="1.5" height="8.4" x="70" y="59.2" fill="#fcbf7f"/><rect width="1.5" height="5.8" x="76.5" y="61.8" fill="#f17e5b"/><rect width="1.5" height="5.8" x="80" y="61.8" fill="#fcbf7f"/><rect width="1.5" height="8.4" x="28.5" y="59.2" fill="#f17e5b"/><rect width="1.5" height="8.4" x="32" y="59.2" fill="#fcbf7f"/><rect width="1.5" height="8.4" x="62.5" y="58.2" fill="#f17e5b"/><rect width="1.5" height="8.4" x="66" y="58.2" fill="#fcbf7f"/><rect width="1.5" height="7" x="27.5" y="53.5" fill="#fcbf7f"/><rect width="1.5" height="7" x="23" y="53.5" fill="#f17e5b"/><polygon fill="#f17e5b" points="18.5 56.2 18.5 60.6 20 60.6 20 54.7"/><rect width="1.5" height="6.1" x="22" y="54.5" fill="#fcbf7f"/><rect width="1.5" height="8" x="41.5" y="48.5" fill="#fcbf7f"/><rect width="1.5" height="8" x="37" y="48.5" fill="#f17e5b"/><rect width="1.5" height="8.4" x="32.5" y="50.7" fill="#f17e5b"/><rect width="1.5" height="8.4" x="36" y="50.7" fill="#fcbf7f"/><rect width="1.5" height="10" x="51.5" y="46" fill="#fcbf7f"/><rect width="1.5" height="10" x="47" y="46" fill="#f17e5b"/><rect width="1.5" height="8.4" x="42.5" y="47.2" fill="#f17e5b"/><rect width="1.5" height="8.4" x="46" y="47.2" fill="#fcbf7f"/><rect width="1.5" height="9.3" x="61.5" y="47.5" fill="#fcbf7f"/><rect width="1.5" height="9.3" x="57" y="47.5" fill="#f17e5b"/><rect width="1.5" height="8.4" x="52.5" y="47.2" fill="#f17e5b"/><rect width="1.5" height="8.4" x="56" y="47.2" fill="#fcbf7f"/><rect width="1.5" height="6.2" x="75.5" y="53.5" fill="#fcbf7f"/><rect width="1.5" height="6.2" x="71" y="53.5" fill="#f17e5b"/><rect width="1.5" height="7.6" x="66.5" y="51.2" fill="#f17e5b"/><rect width="1.5" height="7.6" x="70" y="51.2" fill="#fcbf7f"/><rect width="1.5" height="5.5" x="76.5" y="54.8" fill="#f17e5b"/><rect width="1.5" height="5.5" x="80" y="54.8" fill="#fcbf7f"/><rect width="1.5" height="8.4" x="28.5" y="50.7" fill="#f17e5b"/><rect width="1.5" height="8.4" x="32" y="50.7" fill="#fcbf7f"/><rect width="1.5" height="3.5" x="27.5" y="49.5" fill="#fcbf7f"/><rect width="1.5" height="3.5" x="23" y="49.5" fill="#f17e5b"/><rect width="1.5" height="9" x="41.5" y="39" fill="#fcbf7f"/><rect width="1.5" height="9.1" x="37" y="39" fill="#f17e5b"/><polygon fill="#f17e5b" points="32.5 43.2 32.5 49.6 34 49.6 34 41.2"/><rect width="1.5" height="8.4" x="36" y="41.2" fill="#fcbf7f"/><rect width="1.5" height="10" x="51.5" y="36.5" fill="#fcbf7f"/><rect width="1.5" height="10" x="47" y="36.5" fill="#f17e5b"/><polygon fill="#f17e5b" points="42.5 39.2 42.5 46.1 44 46.1 44 37.7"/><rect width="1.5" height="8.4" x="46" y="37.7" fill="#fcbf7f"/><polygon fill="#f17e5b" points="28.5 46 28.5 50.6 30 50.6 30 44.5"/><rect width="1.5" height="6.5" x="32" y="44.1" fill="#fcbf7f"/><rect width="1.5" height="6.9" x="62.5" y="50.5" fill="#f17e5b"/><rect width="1.5" height="6.9" x="66" y="50.5" fill="#fcbf7f"/><rect width="1.5" height="8.2" x="61.5" y="39.6" fill="#fcbf7f"/><rect width="1.5" height="8.2" x="57" y="39.6" fill="#f17e5b"/><rect width="1.5" height="8.4" x="52.5" y="37.7" fill="#f17e5b"/><polygon fill="#fcbf7f" points="56 37.7 56 46.1 57.5 46.1 57.5 39.2"/><rect width="1.5" height="3.1" x="75.5" y="49.6" fill="#fcbf7f"/><rect width="1.5" height="3.5" x="71" y="49.3" fill="#f17e5b"/><rect width="1.5" height="6.8" x="66.5" y="44" fill="#f17e5b"/><polygon fill="#fcbf7f" points="70 44.2 70 50.8 71.5 50.8 71.5 45.7"/><rect width="1.5" height="8.2" x="62.5" y="41.5" fill="#f17e5b"/><polygon fill="#fcbf7f" points="66 41.5 66 49.4 67.5 49.4 67.5 42.5"/><rect id="XMLID_1299_" width="6" height="16" x="57" y="74.5" fill="#f79a6c"/><rect id="XMLID_1298_" width="6" height="16" x="71" y="74.5" fill="#f79a6c"/><path fill="#f17e5b" d="M27.7 66.5l-1.7-1-1.7 1c-.8.5-1.3 1.3-1.3 2.2v1.5c0-.9.5-1.8 1.3-2.2l1.7-1 1.7 1c.8.5 1.3 1.3 1.3 2.2v-1.5C29 67.8 28.5 66.9 27.7 66.5zM41.7 65.5l-1.7-1-1.7 1C37.5 66 37 66.8 37 67.7v1.5c0-.9.5-1.8 1.3-2.2l1.7-1 1.7 1c.8.5 1.3 1.3 1.3 2.2v-1.5C43 66.8 42.5 66 41.7 65.5zM51.7 65.5l-1.7-1-1.7 1c-.8.5-1.3 1.3-1.3 2.2v1.5c0-.9.5-1.8 1.3-2.2l1.7-1 1.7 1c.8.5 1.3 1.3 1.3 2.2v-1.5C53 66.8 52.5 65.9 51.7 65.5zM61.7 65.5l-1.7-1-1.7 1c-.8.5-1.3 1.3-1.3 2.2v1.5c0-.9.5-1.8 1.3-2.2l1.7-1 1.7 1c.8.5 1.3 1.3 1.3 2.2v-1.5C63 66.8 62.5 65.9 61.7 65.5zM75.7 66.5l-1.7-1-1.7 1c-.8.5-1.3 1.3-1.3 2.2v1.5c0-.9.5-1.8 1.3-2.2l1.7-1 1.7 1c.8.5 1.3 1.3 1.3 2.2v-1.5C77 67.8 76.5 66.9 75.7 66.5zM45.8 65.1L45 64.5l-.8.6c-.8.6-1.2 1.5-1.2 2.4V69c0-.9.4-1.8 1.2-2.4L45 66l.8.6c.8.6 1.2 1.5 1.2 2.4v-1.5C47 66.6 46.6 65.7 45.8 65.1zM31.8 65.2L31 64.6l-.8.6c-.8.6-1.2 1.5-1.2 2.4v1.5c0-.9.4-1.8 1.2-2.4l.8-.6.8.6c.8.6 1.2 1.5 1.2 2.4v-1.5C33 66.7 32.6 65.8 31.8 65.2zM35.8 65.2L35 64.6l-.8.6c-.8.6-1.2 1.5-1.2 2.4v1.5c0-.9.4-1.8 1.2-2.4l.8-.6.8.6c.8.6 1.2 1.5 1.2 2.4v-1.5C37 66.7 36.6 65.8 35.8 65.2zM55.8 65.1L55 64.5l-.8.6c-.8.6-1.2 1.5-1.2 2.4V69c0-.9.4-1.8 1.2-2.4L55 66l.8.6c.8.6 1.2 1.5 1.2 2.4v-1.5C57 66.6 56.6 65.7 55.8 65.1zM21.8 67.1L21 66.5l-.8.6c-.8.6-1.2 1.5-1.2 2.4V71c0-.9.4-1.8 1.2-2.4L21 68l.8.6c.8.6 1.2 1.5 1.2 2.4v-1.5C23 68.6 22.6 67.7 21.8 67.1zM65.8 65.1L65 64.5l-.8.6c-.8.6-1.2 1.5-1.2 2.4V69c0-.9.4-1.8 1.2-2.4L65 66l.8.6c.8.6 1.2 1.5 1.2 2.4v-1.5C67 66.6 66.6 65.7 65.8 65.1zM69.8 65.1L69 64.5l-.8.6c-.8.6-1.2 1.5-1.2 2.4V69c0-.9.4-1.8 1.2-2.4L69 66l.8.6c.8.6 1.2 1.5 1.2 2.4v-1.5C71 66.6 70.6 65.7 69.8 65.1zM79.8 67.1L79 66.5l-.8.6c-.8.6-1.2 1.5-1.2 2.4V71c0-.9.4-1.8 1.2-2.4L79 68l.8.6c.8.6 1.2 1.5 1.2 2.4v-1.5C81 68.6 80.6 67.7 79.8 67.1zM27.7 59.5l-1.7-1-1.7 1c-.8.5-1.3 1.3-1.3 2.2v1.5c0-.9.5-1.8 1.3-2.2l1.7-1 1.7 1c.8.5 1.3 1.3 1.3 2.2v-1.5C29 60.8 28.5 59.9 27.7 59.5zM41.7 56.5l-1.7-1-1.7 1C37.5 57 37 57.8 37 58.7v1.5c0-.9.5-1.8 1.3-2.2l1.7-1 1.7 1c.8.5 1.3 1.3 1.3 2.2v-1.5C43 57.8 42.5 57 41.7 56.5zM51.7 55.5l-1.7-1-1.7 1c-.8.5-1.3 1.3-1.3 2.2v1.5c0-.9.5-1.8 1.3-2.2l1.7-1 1.7 1c.8.5 1.3 1.3 1.3 2.2v-1.5C53 56.8 52.5 55.9 51.7 55.5zM61.7 56.5l-1.7-1-1.7 1c-.8.5-1.3 1.3-1.3 2.2v1.5c0-.9.5-1.8 1.3-2.2l1.7-1 1.7 1c.8.5 1.3 1.3 1.3 2.2v-1.5C63 57.8 62.5 56.9 61.7 56.5zM75.7 59.5l-1.7-1-1.7 1c-.8.5-1.3 1.3-1.3 2.2v1.5c0-.9.5-1.8 1.3-2.2l1.7-1 1.7 1c.8.5 1.3 1.3 1.3 2.2v-1.5C77 60.8 76.5 59.9 75.7 59.5zM45.8 55.1L45 54.5l-.8.6c-.8.6-1.2 1.5-1.2 2.4V59c0-.9.4-1.8 1.2-2.4L45 56l.8.6c.8.6 1.2 1.5 1.2 2.4v-1.5C47 56.6 46.6 55.7 45.8 55.1zM31.8 58.2L31 57.6l-.8.6c-.8.6-1.2 1.5-1.2 2.4v1.5c0-.9.4-1.8 1.2-2.4l.8-.6.8.6c.8.6 1.2 1.5 1.2 2.4v-1.5C33 59.7 32.6 58.8 31.8 58.2zM35.8 57.2L35 56.6l-.8.6c-.8.6-1.2 1.5-1.2 2.4v1.5c0-.9.4-1.8 1.2-2.4l.8-.6.8.6c.8.6 1.2 1.5 1.2 2.4v-1.5C37 58.7 36.6 57.8 35.8 57.2zM55.8 55.1L55 54.5l-.8.6c-.8.6-1.2 1.5-1.2 2.4V59c0-.9.4-1.8 1.2-2.4L55 56l.8.6c.8.6 1.2 1.5 1.2 2.4v-1.5C57 56.6 56.6 55.7 55.8 55.1zM21.8 60.1L21 59.5l-.8.6c-.8.6-1.2 1.5-1.2 2.4V64c0-.9.4-1.8 1.2-2.4L21 61l.8.6c.8.6 1.2 1.5 1.2 2.4v-1.5C23 61.6 22.6 60.7 21.8 60.1zM65.8 57.1L65 56.5l-.8.6c-.8.6-1.2 1.5-1.2 2.4V61c0-.9.4-1.8 1.2-2.4L65 58l.8.6c.8.6 1.2 1.5 1.2 2.4v-1.5C67 58.6 66.6 57.7 65.8 57.1zM69.8 58.1L69 57.5l-.8.6c-.8.6-1.2 1.5-1.2 2.4V62c0-.9.4-1.8 1.2-2.4L69 59l.8.6c.8.6 1.2 1.5 1.2 2.4v-1.5C71 59.6 70.6 58.7 69.8 58.1zM79.8 60.1L79 59.5l-.8.6c-.8.6-1.2 1.5-1.2 2.4V64c0-.9.4-1.8 1.2-2.4L79 61l.8.6c.8.6 1.2 1.5 1.2 2.4v-1.5C81 61.6 80.6 60.7 79.8 60.1zM27.7 52.5l-1.7-1-1.7 1c-.8.5-1.3 1.3-1.3 2.2v1.5c0-.9.5-1.8 1.3-2.2l1.7-1 1.7 1c.8.5 1.3 1.3 1.3 2.2v-1.5C29 53.8 28.5 52.9 27.7 52.5zM41.7 47.5l-1.7-1-1.7 1C37.5 48 37 48.8 37 49.7v1.5c0-.9.5-1.8 1.3-2.2l1.7-1 1.7 1c.8.5 1.3 1.3 1.3 2.2v-1.5C43 48.8 42.5 48 41.7 47.5zM51.7 45.5l-1.7-1-1.7 1c-.8.5-1.3 1.3-1.3 2.2v1.5c0-.9.5-1.8 1.3-2.2l1.7-1 1.7 1c.8.5 1.3 1.3 1.3 2.2v-1.5C53 46.8 52.5 45.9 51.7 45.5zM61.7 47.5l-1.7-1-1.7 1c-.8.5-1.3 1.3-1.3 2.2v1.5c0-.9.5-1.8 1.3-2.2l1.7-1 1.7 1c.8.5 1.3 1.3 1.3 2.2v-1.5C63 48.8 62.5 47.9 61.7 47.5zM75.7 52.5l-1.7-1-1.7 1c-.8.5-1.3 1.3-1.3 2.2v1.5c0-.9.5-1.8 1.3-2.2l1.7-1 1.7 1c.8.5 1.3 1.3 1.3 2.2v-1.5C77 53.8 76.5 52.9 75.7 52.5zM45.8 46.1L45 45.5l-.8.6c-.8.6-1.2 1.5-1.2 2.4V50c0-.9.4-1.8 1.2-2.4L45 47l.8.6c.8.6 1.2 1.5 1.2 2.4v-1.5C47 47.6 46.6 46.7 45.8 46.1zM31.8 50.2L31 49.6l-.8.6c-.8.6-1.2 1.5-1.2 2.4v1.5c0-.9.4-1.8 1.2-2.4l.8-.6.8.6c.8.6 1.2 1.5 1.2 2.4v-1.5C33 51.7 32.6 50.8 31.8 50.2zM35.8 49.2L35 48.6l-.8.6c-.8.6-1.2 1.5-1.2 2.4v1.5c0-.9.4-1.8 1.2-2.4l.8-.6.8.6c.8.6 1.2 1.5 1.2 2.4v-1.5C37 50.7 36.6 49.8 35.8 49.2zM55.8 46.1L55 45.5l-.8.6c-.8.6-1.2 1.5-1.2 2.4V50c0-.9.4-1.8 1.2-2.4L55 47l.8.6c.8.6 1.2 1.5 1.2 2.4v-1.5C57 47.6 56.6 46.7 55.8 46.1zM21.8 53.1L21 52.5l-.8.6c-.8.6-1.2 1.5-1.2 2.4V57c0-.9.4-1.8 1.2-2.4L21 54l.8.6c.8.6 1.2 1.5 1.2 2.4v-1.5C23 54.6 22.6 53.7 21.8 53.1zM65.8 49.1L65 48.5l-.8.6c-.8.6-1.2 1.5-1.2 2.4V53c0-.9.4-1.8 1.2-2.4L65 50l.8.6c.8.6 1.2 1.5 1.2 2.4v-1.5C67 50.6 66.6 49.7 65.8 49.1zM69.8 50.1L69 49.5l-.8.6c-.8.6-1.2 1.5-1.2 2.4V54c0-.9.4-1.8 1.2-2.4L69 51l.8.6c.8.6 1.2 1.5 1.2 2.4v-1.5C71 51.6 70.6 50.7 69.8 50.1z"/><path fill="#f17e5b" d="M27.7 48.5l-1.7-1-1.7 1c-.8.5-1.3 1.3-1.3 2.2v1.5c0-.9.5-1.8 1.3-2.2l1.7-1 1.7 1c.8.5 1.3 1.3 1.3 2.2v-1.5C29 49.8 28.5 48.9 27.7 48.5zM41.7 38.5l-1.7-1-1.7 1C37.5 39 37 39.8 37 40.7v1.5c0-.9.5-1.8 1.3-2.2l1.7-1 1.7 1c.8.5 1.3 1.3 1.3 2.2v-1.5C43 39.8 42.5 39 41.7 38.5zM51.7 35.5l-1.7-1-1.7 1c-.8.5-1.3 1.3-1.3 2.2v1.5c0-.9.5-1.8 1.3-2.2l1.7-1 1.7 1c.8.5 1.3 1.3 1.3 2.2v-1.5C53 36.8 52.5 35.9 51.7 35.5zM61.7 38.5l-1.7-1-1.7 1c-.8.5-1.3 1.3-1.3 2.2v1.5c0-.9.5-1.8 1.3-2.2l1.7-1 1.7 1c.8.5 1.3 1.3 1.3 2.2v-1.5C63 39.8 62.5 38.9 61.7 38.5zM75.7 48.5l-1.7-1-1.7 1c-.8.5-1.3 1.3-1.3 2.2v1.5c0-.9.5-1.8 1.3-2.2l1.7-1 1.7 1c.8.5 1.3 1.3 1.3 2.2v-1.5C77 49.8 76.5 48.9 75.7 48.5zM45.8 36.1L45 35.5l-.8.6c-.8.6-1.2 1.5-1.2 2.4V40c0-.9.4-1.8 1.2-2.4L45 37l.8.6c.8.6 1.2 1.5 1.2 2.4v-1.5C47 37.6 46.6 36.7 45.8 36.1zM31.8 43.1L31 42.5l-.8.6c-.8.6-1.2 1.5-1.2 2.4V47c0-.9.4-1.8 1.2-2.4L31 44l.8.6c.8.6 1.2 1.5 1.2 2.4v-1.5C33 44.6 32.6 43.7 31.8 43.1zM35.8 40.2L35 39.6l-.8.6c-.8.6-1.2 1.5-1.2 2.4v1.5c0-.9.4-1.8 1.2-2.4l.8-.6.8.6c.8.6 1.2 1.5 1.2 2.4v-1.5C37 41.7 36.6 40.8 35.8 40.2zM55.8 36.1L55 35.5l-.8.6c-.8.6-1.2 1.5-1.2 2.4V40c0-.9.4-1.8 1.2-2.4L55 37l.8.6c.8.6 1.2 1.5 1.2 2.4v-1.5C57 37.6 56.6 36.7 55.8 36.1zM65.8 40.1L65 39.5l-.8.6c-.8.6-1.2 1.5-1.2 2.4V44c0-.9.4-1.8 1.2-2.4L65 41l.8.6c.8.6 1.2 1.5 1.2 2.4v-1.5C67 41.6 66.6 40.7 65.8 40.1zM69.8 43.1L69 42.5l-.8.6c-.8.6-1.2 1.5-1.2 2.4V47c0-.9.4-1.8 1.2-2.4L69 44l.8.6c.8.6 1.2 1.5 1.2 2.4v-1.5C71 44.6 70.6 43.7 69.8 43.1zM79.8 53.1L79 52.5l-.8.6c-.8.6-1.2 1.5-1.2 2.4V57c0-.9.4-1.8 1.2-2.4L79 54l.8.6c.8.6 1.2 1.5 1.2 2.4v-1.5C81 54.6 80.6 53.7 79.8 53.1z"/><rect id="XMLID_1297_" width="4" height="16" x="53" y="74.5" fill="#f79a6c"/><rect id="XMLID_1296_" width="4" height="16" x="63" y="74.5" fill="#f79a6c"/><rect id="XMLID_1295_" width="4" height="16" x="67" y="74.5" fill="#f79a6c"/><rect id="XMLID_1294_" width="4" height="16" x="77" y="74.5" fill="#f79a6c"/><rect id="XMLID_1293_" width="6" height="16" x="37" y="74.5" fill="#f79a6c"/><rect width="1.5" height="16" x="41.5" y="74.5" fill="#fcbf7f"/><path id="XMLID_1291_" fill="#f17e5b" d="M43,81c-0.3,0-0.5-0.2-0.5-0.5c0-0.3-0.2-0.5-0.5-0.5c-0.1,0-0.2,0-0.3,0.1c-0.1,0.1-0.3,0.1-0.5,0     C41.1,80.1,41,80,41,79.8c-0.1-0.5-0.5-0.8-1-0.8c-0.5,0-0.9,0.3-1,0.8c0,0.2-0.1,0.3-0.3,0.4c-0.2,0.1-0.3,0-0.5,0     C38.2,80,38.1,80,38,80c-0.3,0-0.5,0.2-0.5,0.5c0,0.3-0.2,0.5-0.5,0.5s-0.5-0.2-0.5-0.5c0-0.9,0.9-1.6,1.8-1.5c0.3-0.6,1-1,1.7-1     s1.4,0.4,1.7,1c0.9-0.2,1.8,0.6,1.8,1.5C43.5,80.8,43.3,81,43,81z"/><rect id="XMLID_1290_" width="4" height="16" x="33" y="74.5" fill="#f79a6c"/><rect id="XMLID_1289_" width="6" height="16" x="23" y="74.5" fill="#f79a6c"/><rect width="1.5" height="16" x="27.5" y="74.5" fill="#fcbf7f"/><rect id="XMLID_1288_" width="4" height="16" x="29" y="74.5" fill="#f79a6c"/><rect id="XMLID_1286_" width="4" height="16" x="19" y="74.5" fill="#f79a6c"/><rect width="1.5" height="16" x="18.5" y="74.5" fill="#f17e5b"/><rect width="1.5" height="16" x="22" y="74.5" fill="#fcbf7f"/><rect width="1.5" height="16" x="32" y="74.5" fill="#fcbf7f"/><rect width="3.9" height="1.5" x="19" y="74.5" fill="#f17e5b"/><rect width="1.5" height="16" x="28.5" y="74.5" fill="#f17e5b"/><rect width="3.9" height="1.5" x="29" y="74.5" fill="#f17e5b"/><rect width="1.5" height="16" x="36" y="74.5" fill="#fcbf7f"/><rect width="1.5" height="16" x="32.5" y="74.5" fill="#f17e5b"/><rect width="3.9" height="1.5" x="33" y="74.5" fill="#f17e5b"/><rect width="6" height="1.5" x="23" y="74.5" fill="#f17e5b"/><rect id="XMLID_1285_" width="6" height="16" x="47" y="74.5" fill="#f79a6c"/><path id="XMLID_1284_" fill="#76bbb4" d="M27,63.5h-2v-1.9c0-0.3,0.2-0.6,0.4-0.7l0.6-0.3l0.6,0.3c0.3,0.2,0.4,0.4,0.4,0.7V63.5z"/><path id="XMLID_1283_" fill="#76bbb4" d="M27,70.5h-2v-1.9c0-0.3,0.2-0.6,0.4-0.7l0.6-0.3l0.6,0.3c0.3,0.2,0.4,0.4,0.4,0.7V70.5z"/><path id="XMLID_1282_" fill="#76bbb4" d="M27,56.5h-2v-1.9c0-0.3,0.2-0.6,0.4-0.7l0.6-0.3l0.6,0.3c0.3,0.2,0.4,0.4,0.4,0.7V56.5z"/><path id="XMLID_1281_" fill="#76bbb4" d="M51,69.5h-2v-1.9c0-0.3,0.2-0.6,0.4-0.7l0.6-0.3l0.6,0.3c0.3,0.2,0.4,0.4,0.4,0.7V69.5z"/><path id="XMLID_1280_" fill="#76bbb4" d="M51,59.5h-2v-1.9c0-0.3,0.2-0.6,0.4-0.7l0.6-0.3l0.6,0.3c0.3,0.2,0.4,0.4,0.4,0.7V59.5z"/><path id="XMLID_1279_" fill="#76bbb4" d="M51,49.5h-2v-1.9c0-0.3,0.2-0.6,0.4-0.7l0.6-0.3l0.6,0.3c0.3,0.2,0.4,0.4,0.4,0.7V49.5z"/><path id="XMLID_1275_" fill="#76bbb4" d="M51,39.5h-2v-1.9c0-0.3,0.2-0.6,0.4-0.7l0.6-0.3l0.6,0.3c0.3,0.2,0.4,0.4,0.4,0.7V39.5z"/><path id="XMLID_1274_" fill="#76bbb4" d="M61,42.5h-2v-1.9c0-0.3,0.2-0.6,0.4-0.7l0.6-0.3l0.6,0.3c0.3,0.2,0.4,0.4,0.4,0.7V42.5z"/><path id="XMLID_1273_" fill="#76bbb4" d="M61,51.5h-2v-1.9c0-0.3,0.2-0.6,0.4-0.7l0.6-0.3l0.6,0.3c0.3,0.2,0.4,0.4,0.4,0.7V51.5z"/><path id="XMLID_1272_" fill="#76bbb4" d="M61,60.5h-2v-1.9c0-0.3,0.2-0.6,0.4-0.7l0.6-0.3l0.6,0.3c0.3,0.2,0.4,0.4,0.4,0.7V60.5z"/><path id="XMLID_1271_" fill="#76bbb4" d="M61,69.5h-2v-1.9c0-0.3,0.2-0.6,0.4-0.7l0.6-0.3l0.6,0.3c0.3,0.2,0.4,0.4,0.4,0.7V69.5z"/><path id="XMLID_1270_" fill="#76bbb4" d="M41,42.5h-2v-1.9c0-0.3,0.2-0.6,0.4-0.7l0.6-0.3l0.6,0.3c0.3,0.2,0.4,0.4,0.4,0.7V42.5z"/><path id="XMLID_1269_" fill="#76bbb4" d="M41,51.5h-2v-1.9c0-0.3,0.2-0.6,0.4-0.7l0.6-0.3l0.6,0.3c0.3,0.2,0.4,0.4,0.4,0.7V51.5z"/><path id="XMLID_1268_" fill="#76bbb4" d="M41,60.5h-2v-1.9c0-0.3,0.2-0.6,0.4-0.7l0.6-0.3l0.6,0.3c0.3,0.2,0.4,0.4,0.4,0.7V60.5z"/><path id="XMLID_1267_" fill="#76bbb4" d="M41,69.5h-2v-1.9c0-0.3,0.2-0.6,0.4-0.7l0.6-0.3l0.6,0.3c0.3,0.2,0.4,0.4,0.4,0.7V69.5z"/><path id="XMLID_1266_" fill="#76bbb4" d="M73,63.5h2v-1.9c0-0.3-0.2-0.6-0.4-0.7L74,60.5l-0.6,0.3C73.2,61,73,61.3,73,61.6V63.5z"/><path id="XMLID_1265_" fill="#76bbb4" d="M73,70.5h2v-1.9c0-0.3-0.2-0.6-0.4-0.7L74,67.5l-0.6,0.3C73.2,68,73,68.3,73,68.6V70.5z"/><path id="XMLID_1264_" fill="#76bbb4" d="M73,56.5h2v-1.9c0-0.3-0.2-0.6-0.4-0.7L74,53.5l-0.6,0.3C73.2,54,73,54.3,73,54.6V56.5z"/><rect id="XMLID_1263_" width="2" height="4" x="39" y="81.5" fill="#76bbb4"/><rect id="XMLID_1262_" width="2" height="4" x="25" y="81.5" fill="#76bbb4"/><rect id="XMLID_1261_" width="2" height="4" x="49" y="81.5" fill="#76bbb4"/><rect id="XMLID_1260_" width="2" height="4" x="59" y="81.5" fill="#76bbb4"/><rect id="XMLID_1259_" width="2" height="4" x="73" y="81.5" fill="#76bbb4"/><rect id="XMLID_1258_" width="4" height="16" x="43" y="74.5" fill="#f79a6c"/><rect width="1.5" height="16" x="23" y="74.5" fill="#f17e5b"/><rect id="XMLID_1254_" width="4" height="16" x="43" y="74.5" fill="#f79a6c"/><rect width="1.5" height="16" x="46" y="74.5" fill="#fcbf7f"/><rect width="1.5" height="16" x="42.5" y="74.5" fill="#f17e5b"/><rect width="3.9" height="1.5" x="43" y="74.5" fill="#f17e5b"/><rect width="6" height="1.5" x="37" y="74.5" fill="#f17e5b"/><rect width="1.5" height="16" x="37" y="74.5" fill="#f17e5b"/><rect width="1.5" height="16" x="51.5" y="74.5" fill="#fcbf7f"/><path id="XMLID_1253_" fill="#f17e5b" d="M53,81c-0.3,0-0.5-0.2-0.5-0.5c0-0.3-0.2-0.5-0.5-0.5c-0.1,0-0.2,0-0.3,0.1c-0.1,0.1-0.3,0.1-0.5,0     C51.1,80.1,51,80,51,79.8c-0.1-0.5-0.5-0.8-1-0.8c-0.5,0-0.9,0.3-1,0.8c0,0.2-0.1,0.3-0.3,0.4c-0.2,0.1-0.3,0-0.5,0     C48.2,80,48.1,80,48,80c-0.3,0-0.5,0.2-0.5,0.5c0,0.3-0.2,0.5-0.5,0.5s-0.5-0.2-0.5-0.5c0-0.9,0.9-1.6,1.8-1.5c0.3-0.6,1-1,1.7-1     s1.4,0.4,1.7,1c0.9-0.2,1.8,0.6,1.8,1.5C53.5,80.8,53.3,81,53,81z"/><rect width="1.5" height="16" x="56" y="74.5" fill="#fcbf7f"/><rect width="1.5" height="16" x="52.5" y="74.5" fill="#f17e5b"/><rect width="3.9" height="1.5" x="53" y="74.5" fill="#f17e5b"/><rect width="6" height="1.5" x="47" y="74.5" fill="#f17e5b"/><rect width="1.5" height="16" x="47" y="74.5" fill="#f17e5b"/><rect width="1.5" height="16" x="61.5" y="74.5" fill="#fcbf7f"/><path id="XMLID_1252_" fill="#f17e5b" d="M63,81c-0.3,0-0.5-0.2-0.5-0.5c0-0.3-0.2-0.5-0.5-0.5c-0.1,0-0.2,0-0.3,0.1c-0.1,0.1-0.3,0.1-0.5,0     C61.1,80.1,61,80,61,79.8c-0.1-0.5-0.5-0.8-1-0.8c-0.5,0-0.9,0.3-1,0.8c0,0.2-0.1,0.3-0.3,0.4c-0.2,0.1-0.3,0-0.5,0     C58.2,80,58.1,80,58,80c-0.3,0-0.5,0.2-0.5,0.5c0,0.3-0.2,0.5-0.5,0.5s-0.5-0.2-0.5-0.5c0-0.9,0.9-1.6,1.8-1.5c0.3-0.6,1-1,1.7-1     s1.4,0.4,1.7,1c0.9-0.2,1.8,0.6,1.8,1.5C63.5,80.8,63.3,81,63,81z"/><rect width="1.5" height="16" x="66" y="74.5" fill="#fcbf7f"/><rect width="1.5" height="16" x="62.5" y="74.5" fill="#f17e5b"/><rect width="3.9" height="1.5" x="63" y="74.5" fill="#f17e5b"/><rect width="1.5" height="16" x="70" y="74.5" fill="#fcbf7f"/><rect width="1.5" height="16" x="66.5" y="74.5" fill="#f17e5b"/><rect width="3.9" height="1.5" x="67" y="74.5" fill="#f17e5b"/><rect width="6" height="1.5" x="57" y="74.5" fill="#f17e5b"/><rect width="1.5" height="16" x="57" y="74.5" fill="#f17e5b"/><rect width="1.5" height="16" x="75.5" y="74.5" fill="#fcbf7f"/><path id="XMLID_1250_" fill="#f17e5b" d="M77,81c-0.3,0-0.5-0.2-0.5-0.5c0-0.3-0.2-0.5-0.5-0.5c-0.1,0-0.2,0-0.3,0.1c-0.1,0.1-0.3,0.1-0.5,0     C75.1,80.1,75,80,75,79.8c-0.1-0.5-0.5-0.8-1-0.8c-0.5,0-0.9,0.3-1,0.8c0,0.2-0.1,0.3-0.3,0.4c-0.1,0.1-0.3,0-0.5,0     C72.2,80,72.1,80,72,80c-0.3,0-0.5,0.2-0.5,0.5c0,0.3-0.2,0.5-0.5,0.5s-0.5-0.2-0.5-0.5c0-0.9,0.9-1.6,1.8-1.5c0.3-0.6,1-1,1.7-1     s1.4,0.4,1.7,1c0.9-0.2,1.8,0.6,1.8,1.5C77.5,80.8,77.3,81,77,81z"/><rect width="1.5" height="16" x="80" y="74.5" fill="#fcbf7f"/><rect width="1.5" height="16" x="76.5" y="74.5" fill="#f17e5b"/><rect width="3.9" height="1.5" x="77" y="74.5" fill="#f17e5b"/><rect width="6" height="1.5" x="71" y="74.5" fill="#f17e5b"/><rect width="1.5" height="16" x="71" y="74.5" fill="#f17e5b"/><path id="XMLID_1249_" fill="#594454" d="M29,67.6c-0.3,0-0.5-0.2-0.5-0.5v-5.4c0-0.7-0.4-1.4-1-1.8L26,59.1l-1.5,0.8c-0.6,0.4-1,1.1-1,1.8v5.4     c0,0.3-0.2,0.5-0.5,0.5s-0.5-0.2-0.5-0.5v-5.4c0-1.1,0.6-2.1,1.5-2.7l1.7-1c0.2-0.1,0.3-0.1,0.5,0l1.7,1c1,0.5,1.5,1.6,1.5,2.7     v5.4C29.5,67.4,29.3,67.6,29,67.6z"/><path id="XMLID_1248_" fill="#f17e5b" d="M27,72h-2c-0.3,0-0.5-0.2-0.5-0.5v-0.9c0-0.3,0.2-0.5,0.5-0.5s0.5,0.2,0.5,0.5V71h1v-0.4     c0-0.3,0.2-0.5,0.5-0.5s0.5,0.2,0.5,0.5v0.9C27.5,71.8,27.3,72,27,72z"/><path id="XMLID_1247_" fill="#f17e5b" d="M41,71h-2c-0.3,0-0.5-0.2-0.5-0.5v-0.9c0-0.3,0.2-0.5,0.5-0.5s0.5,0.2,0.5,0.5V70h1v-0.4     c0-0.3,0.2-0.5,0.5-0.5s0.5,0.2,0.5,0.5v0.9C41.5,70.8,41.3,71,41,71z"/><path id="XMLID_1244_" fill="#f17e5b" d="M51,71h-2c-0.3,0-0.5-0.2-0.5-0.5v-0.9c0-0.3,0.2-0.5,0.5-0.5s0.5,0.2,0.5,0.5V70h1v-0.4     c0-0.3,0.2-0.5,0.5-0.5s0.5,0.2,0.5,0.5v0.9C51.5,70.8,51.3,71,51,71z"/><path id="XMLID_1243_" fill="#f17e5b" d="M61,71h-2c-0.3,0-0.5-0.2-0.5-0.5v-0.9c0-0.3,0.2-0.5,0.5-0.5s0.5,0.2,0.5,0.5V70h1v-0.4     c0-0.3,0.2-0.5,0.5-0.5s0.5,0.2,0.5,0.5v0.9C61.5,70.8,61.3,71,61,71z"/><path id="XMLID_1242_" fill="#f17e5b" d="M75,72h-2c-0.3,0-0.5-0.2-0.5-0.5v-0.9c0-0.3,0.2-0.5,0.5-0.5s0.5,0.2,0.5,0.5V71h1v-0.4     c0-0.3,0.2-0.5,0.5-0.5s0.5,0.2,0.5,0.5v0.9C75.5,71.8,75.3,72,75,72z"/><path id="XMLID_1241_" fill="#f17e5b" d="M27,87h-2c-0.3,0-0.5-0.2-0.5-0.5v-0.9c0-0.3,0.2-0.5,0.5-0.5s0.5,0.2,0.5,0.5V86h1v-0.4     c0-0.3,0.2-0.5,0.5-0.5s0.5,0.2,0.5,0.5v0.9C27.5,86.8,27.3,87,27,87z"/><path id="XMLID_1240_" fill="#f17e5b" d="M41,87h-2c-0.3,0-0.5-0.2-0.5-0.5v-0.9c0-0.3,0.2-0.5,0.5-0.5s0.5,0.2,0.5,0.5V86h1v-0.4     c0-0.3,0.2-0.5,0.5-0.5s0.5,0.2,0.5,0.5v0.9C41.5,86.8,41.3,87,41,87z"/><path id="XMLID_1239_" fill="#f17e5b" d="M51,87h-2c-0.3,0-0.5-0.2-0.5-0.5v-0.9c0-0.3,0.2-0.5,0.5-0.5s0.5,0.2,0.5,0.5V86h1v-0.4     c0-0.3,0.2-0.5,0.5-0.5s0.5,0.2,0.5,0.5v0.9C51.5,86.8,51.3,87,51,87z"/><path id="XMLID_1238_" fill="#f17e5b" d="M61,87h-2c-0.3,0-0.5-0.2-0.5-0.5v-0.9c0-0.3,0.2-0.5,0.5-0.5s0.5,0.2,0.5,0.5V86h1v-0.4     c0-0.3,0.2-0.5,0.5-0.5s0.5,0.2,0.5,0.5v0.9C61.5,86.8,61.3,87,61,87z"/><path id="XMLID_1236_" fill="#f17e5b" d="M75,87h-2c-0.3,0-0.5-0.2-0.5-0.5v-0.9c0-0.3,0.2-0.5,0.5-0.5s0.5,0.2,0.5,0.5V86h1v-0.4     c0-0.3,0.2-0.5,0.5-0.5s0.5,0.2,0.5,0.5v0.9C75.5,86.8,75.3,87,75,87z"/><path id="XMLID_1235_" fill="#f17e5b" d="M27,65h-2c-0.3,0-0.5-0.2-0.5-0.5v-0.9c0-0.3,0.2-0.5,0.5-0.5s0.5,0.2,0.5,0.5V64h1v-0.4     c0-0.3,0.2-0.5,0.5-0.5s0.5,0.2,0.5,0.5v0.9C27.5,64.8,27.3,65,27,65z"/><path id="XMLID_1232_" fill="#f17e5b" d="M41,62h-2c-0.3,0-0.5-0.2-0.5-0.5v-0.9c0-0.3,0.2-0.5,0.5-0.5s0.5,0.2,0.5,0.5V61h1v-0.4     c0-0.3,0.2-0.5,0.5-0.5s0.5,0.2,0.5,0.5v0.9C41.5,61.8,41.3,62,41,62z"/><path id="XMLID_1231_" fill="#f17e5b" d="M51,61h-2c-0.3,0-0.5-0.2-0.5-0.5v-0.9c0-0.3,0.2-0.5,0.5-0.5s0.5,0.2,0.5,0.5V60h1v-0.4     c0-0.3,0.2-0.5,0.5-0.5s0.5,0.2,0.5,0.5v0.9C51.5,60.8,51.3,61,51,61z"/><path id="XMLID_1230_" fill="#f17e5b" d="M61,62h-2c-0.3,0-0.5-0.2-0.5-0.5v-0.9c0-0.3,0.2-0.5,0.5-0.5s0.5,0.2,0.5,0.5V61h1v-0.4     c0-0.3,0.2-0.5,0.5-0.5s0.5,0.2,0.5,0.5v0.9C61.5,61.8,61.3,62,61,62z"/><path id="XMLID_1229_" fill="#f17e5b" d="M75,65h-2c-0.3,0-0.5-0.2-0.5-0.5v-0.9c0-0.3,0.2-0.5,0.5-0.5s0.5,0.2,0.5,0.5V64h1v-0.4     c0-0.3,0.2-0.5,0.5-0.5s0.5,0.2,0.5,0.5v0.9C75.5,64.8,75.3,65,75,65z"/><path id="XMLID_1228_" fill="#f17e5b" d="M27,58h-2c-0.3,0-0.5-0.2-0.5-0.5v-0.9c0-0.3,0.2-0.5,0.5-0.5s0.5,0.2,0.5,0.5V57h1v-0.4     c0-0.3,0.2-0.5,0.5-0.5s0.5,0.2,0.5,0.5v0.9C27.5,57.8,27.3,58,27,58z"/><path id="XMLID_1227_" fill="#f17e5b" d="M41,53h-2c-0.3,0-0.5-0.2-0.5-0.5v-0.9c0-0.3,0.2-0.5,0.5-0.5s0.5,0.2,0.5,0.5V52h1v-0.4     c0-0.3,0.2-0.5,0.5-0.5s0.5,0.2,0.5,0.5v0.9C41.5,52.8,41.3,53,41,53z"/><path id="XMLID_1226_" fill="#f17e5b" d="M51,51h-2c-0.3,0-0.5-0.2-0.5-0.5v-0.9c0-0.3,0.2-0.5,0.5-0.5s0.5,0.2,0.5,0.5V50h1v-0.4     c0-0.3,0.2-0.5,0.5-0.5s0.5,0.2,0.5,0.5v0.9C51.5,50.8,51.3,51,51,51z"/><path id="XMLID_1225_" fill="#f17e5b" d="M61,53h-2c-0.3,0-0.5-0.2-0.5-0.5v-0.9c0-0.3,0.2-0.5,0.5-0.5s0.5,0.2,0.5,0.5V52h1v-0.4     c0-0.3,0.2-0.5,0.5-0.5s0.5,0.2,0.5,0.5v0.9C61.5,52.8,61.3,53,61,53z"/><path id="XMLID_1224_" fill="#f17e5b" d="M41,44h-2c-0.3,0-0.5-0.2-0.5-0.5v-0.9c0-0.3,0.2-0.5,0.5-0.5s0.5,0.2,0.5,0.5V43h1v-0.4     c0-0.3,0.2-0.5,0.5-0.5s0.5,0.2,0.5,0.5v0.9C41.5,43.8,41.3,44,41,44z"/><path id="XMLID_1223_" fill="#f17e5b" d="M51,41h-2c-0.3,0-0.5-0.2-0.5-0.5v-0.9c0-0.3,0.2-0.5,0.5-0.5s0.5,0.2,0.5,0.5V40h1v-0.4     c0-0.3,0.2-0.5,0.5-0.5s0.5,0.2,0.5,0.5v0.9C51.5,40.8,51.3,41,51,41z"/><path id="XMLID_1222_" fill="#f17e5b" d="M61,44h-2c-0.3,0-0.5-0.2-0.5-0.5v-0.9c0-0.3,0.2-0.5,0.5-0.5s0.5,0.2,0.5,0.5V43h1v-0.4     c0-0.3,0.2-0.5,0.5-0.5s0.5,0.2,0.5,0.5v0.9C61.5,43.8,61.3,44,61,44z"/><path id="XMLID_1219_" fill="#f17e5b" d="M75,58h-2c-0.3,0-0.5-0.2-0.5-0.5v-0.9c0-0.3,0.2-0.5,0.5-0.5s0.5,0.2,0.5,0.5V57h1v-0.4     c0-0.3,0.2-0.5,0.5-0.5s0.5,0.2,0.5,0.5v0.9C75.5,57.8,75.3,58,75,58z"/><path id="XMLID_1218_" fill="#594454" d="M29,74.6c-0.3,0-0.5-0.2-0.5-0.5v-5.4c0-0.7-0.4-1.4-1-1.8L26,66.1l-1.5,0.8c-0.6,0.4-1,1.1-1,1.8v5.4     c0,0.3-0.2,0.5-0.5,0.5s-0.5-0.2-0.5-0.5v-5.4c0-1.1,0.6-2.1,1.5-2.7l1.7-1c0.2-0.1,0.3-0.1,0.5,0l1.7,1c1,0.5,1.5,1.6,1.5,2.7     v5.4C29.5,74.4,29.3,74.6,29,74.6z"/><path id="XMLID_1217_" fill="#594454" d="M27,57h-2c-0.3,0-0.5-0.2-0.5-0.5v-1.9c0-0.5,0.3-0.9,0.7-1.2l0.6-0.3c0.2-0.1,0.3-0.1,0.5,0l0.6,0.3     c0.4,0.2,0.7,0.7,0.7,1.2v1.9C27.5,56.8,27.3,57,27,57z M25.5,56h1v-1.4c0-0.1-0.1-0.2-0.2-0.3L26,54.1l-0.3,0.2     c-0.1,0.1-0.2,0.2-0.2,0.3V56z"/><path id="XMLID_1214_" fill="#594454" d="M53,73.6c-0.3,0-0.5-0.2-0.5-0.5v-5.4c0-0.7-0.4-1.4-1-1.8L50,65.1l-1.5,0.8c-0.6,0.4-1,1.1-1,1.8v5.4     c0,0.3-0.2,0.5-0.5,0.5s-0.5-0.2-0.5-0.5v-5.4c0-1.1,0.6-2.1,1.5-2.7l1.7-1c0.2-0.1,0.3-0.1,0.5,0l1.7,1c1,0.5,1.5,1.6,1.5,2.7     v5.4C53.5,73.4,53.3,73.6,53,73.6z"/><path id="XMLID_1213_" fill="#594454" d="M53,63.6c-0.3,0-0.5-0.2-0.5-0.5v-5.4c0-0.7-0.4-1.4-1-1.8L50,55.1l-1.5,0.8c-0.6,0.4-1,1.1-1,1.8v5.4     c0,0.3-0.2,0.5-0.5,0.5s-0.5-0.2-0.5-0.5v-5.4c0-1.1,0.6-2.1,1.5-2.7l1.7-1c0.2-0.1,0.3-0.1,0.5,0l1.7,1c1,0.5,1.5,1.6,1.5,2.7     v5.4C53.5,63.4,53.3,63.6,53,63.6z"/><path id="XMLID_1212_" fill="#594454" d="M53,53.6c-0.3,0-0.5-0.2-0.5-0.5v-5.4c0-0.7-0.4-1.4-1-1.8L50,45.1l-1.5,0.8c-0.6,0.4-1,1.1-1,1.8v5.4     c0,0.3-0.2,0.5-0.5,0.5s-0.5-0.2-0.5-0.5v-5.4c0-1.1,0.6-2.1,1.5-2.7l1.7-1c0.2-0.1,0.3-0.1,0.5,0l1.7,1c1,0.5,1.5,1.6,1.5,2.7     v5.4C53.5,53.4,53.3,53.6,53,53.6z"/><path id="XMLID_1211_" fill="#594454" d="M53,43.6c-0.3,0-0.5-0.2-0.5-0.5v-5.4c0-0.7-0.4-1.4-1-1.8L50,35.1l-1.5,0.8c-0.6,0.4-1,1.1-1,1.8v5.4     c0,0.3-0.2,0.5-0.5,0.5s-0.5-0.2-0.5-0.5v-5.4c0-1.1,0.6-2.1,1.5-2.7l1.7-1c0.2-0.1,0.3-0.1,0.5,0l1.7,1c1,0.5,1.5,1.6,1.5,2.7     v5.4C53.5,43.4,53.3,43.6,53,43.6z"/><path id="XMLID_1210_" fill="#594454" d="M51,70h-2c-0.3,0-0.5-0.2-0.5-0.5v-1.9c0-0.5,0.3-0.9,0.7-1.2l0.6-0.3c0.2-0.1,0.3-0.1,0.5,0l0.6,0.3     c0.4,0.2,0.7,0.7,0.7,1.2v1.9C51.5,69.8,51.3,70,51,70z M49.5,69h1v-1.4c0-0.1-0.1-0.2-0.2-0.3L50,67.1l-0.3,0.2     c-0.1,0.1-0.2,0.2-0.2,0.3V69z"/><path id="XMLID_1209_" fill="#594454" d="M51,50h-2c-0.3,0-0.5-0.2-0.5-0.5v-1.9c0-0.5,0.3-0.9,0.7-1.2l0.6-0.3c0.2-0.1,0.3-0.1,0.5,0l0.6,0.3     c0.4,0.2,0.7,0.7,0.7,1.2v1.9C51.5,49.8,51.3,50,51,50z M49.5,49h1v-1.4c0-0.1-0.1-0.2-0.2-0.3L50,47.1l-0.3,0.2     c-0.1,0.1-0.2,0.2-0.2,0.3V49z"/><path id="XMLID_1208_" fill="#594454" d="M51,40h-2c-0.3,0-0.5-0.2-0.5-0.5v-1.9c0-0.5,0.3-0.9,0.7-1.2l0.6-0.3c0.2-0.1,0.3-0.1,0.5,0l0.6,0.3     c0.4,0.2,0.7,0.7,0.7,1.2v1.9C51.5,39.8,51.3,40,51,40z M49.5,39h1v-1.4c0-0.1-0.1-0.2-0.2-0.3L50,37.1l-0.3,0.2     c-0.1,0.1-0.2,0.2-0.2,0.3V39z"/><path id="XMLID_1207_" fill="#594454" d="M63,46.6c-0.3,0-0.5-0.2-0.5-0.5v-5.4c0-0.7-0.4-1.4-1-1.8L60,38.1l-1.5,0.8c-0.6,0.4-1,1.1-1,1.8v5.4     c0,0.3-0.2,0.5-0.5,0.5s-0.5-0.2-0.5-0.5v-5.4c0-1.1,0.6-2.1,1.5-2.7l1.7-1c0.2-0.1,0.3-0.1,0.5,0l1.7,1c1,0.5,1.5,1.6,1.5,2.7     v5.4C63.5,46.4,63.3,46.6,63,46.6z"/><path id="XMLID_1206_" fill="#594454" d="M61,43h-2c-0.3,0-0.5-0.2-0.5-0.5v-1.9c0-0.5,0.3-0.9,0.7-1.2l0.6-0.3c0.2-0.1,0.3-0.1,0.5,0l0.6,0.3     c0.4,0.2,0.7,0.7,0.7,1.2v1.9C61.5,42.8,61.3,43,61,43z M59.5,42h1v-1.4c0-0.1-0.1-0.2-0.2-0.3L60,40.1l-0.3,0.2     c-0.1,0.1-0.2,0.2-0.2,0.3V42z"/><path id="XMLID_1205_" fill="#594454" d="M63,55.6c-0.3,0-0.5-0.2-0.5-0.5v-5.4c0-0.7-0.4-1.4-1-1.8L60,47.1l-1.5,0.8c-0.6,0.4-1,1.1-1,1.8v5.4     c0,0.3-0.2,0.5-0.5,0.5s-0.5-0.2-0.5-0.5v-5.4c0-1.1,0.6-2.1,1.5-2.7l1.7-1c0.2-0.1,0.3-0.1,0.5,0l1.7,1c1,0.5,1.5,1.6,1.5,2.7     v5.4C63.5,55.4,63.3,55.6,63,55.6z"/><path id="XMLID_1204_" fill="#594454" d="M61,52h-2c-0.3,0-0.5-0.2-0.5-0.5v-1.9c0-0.5,0.3-0.9,0.7-1.2l0.6-0.3c0.2-0.1,0.3-0.1,0.5,0l0.6,0.3     c0.4,0.2,0.7,0.7,0.7,1.2v1.9C61.5,51.8,61.3,52,61,52z M59.5,51h1v-1.4c0-0.1-0.1-0.2-0.2-0.3L60,49.1l-0.3,0.2     c-0.1,0.1-0.2,0.2-0.2,0.3V51z"/><path id="XMLID_1203_" fill="#594454" d="M63,64.6c-0.3,0-0.5-0.2-0.5-0.5v-5.4c0-0.7-0.4-1.4-1-1.8L60,56.1l-1.5,0.8c-0.6,0.4-1,1.1-1,1.8v5.4     c0,0.3-0.2,0.5-0.5,0.5s-0.5-0.2-0.5-0.5v-5.4c0-1.1,0.6-2.1,1.5-2.7l1.7-1c0.2-0.1,0.3-0.1,0.5,0l1.7,1c1,0.5,1.5,1.6,1.5,2.7     v5.4C63.5,64.4,63.3,64.6,63,64.6z"/><path id="XMLID_1202_" fill="#594454" d="M63,73.6c-0.3,0-0.5-0.2-0.5-0.5v-5.4c0-0.7-0.4-1.4-1-1.8L60,65.1l-1.5,0.8c-0.6,0.4-1,1.1-1,1.8v5.4     c0,0.3-0.2,0.5-0.5,0.5s-0.5-0.2-0.5-0.5v-5.4c0-1.1,0.6-2.1,1.5-2.7l1.7-1c0.2-0.1,0.3-0.1,0.5,0l1.7,1c1,0.5,1.5,1.6,1.5,2.7     v5.4C63.5,73.4,63.3,73.6,63,73.6z"/><path id="XMLID_1201_" fill="#594454" d="M61,70h-2c-0.3,0-0.5-0.2-0.5-0.5v-1.9c0-0.5,0.3-0.9,0.7-1.2l0.6-0.3c0.2-0.1,0.3-0.1,0.5,0l0.6,0.3     c0.4,0.2,0.7,0.7,0.7,1.2v1.9C61.5,69.8,61.3,70,61,70z M59.5,69h1v-1.4c0-0.1-0.1-0.2-0.2-0.3L60,67.1l-0.3,0.2     c-0.1,0.1-0.2,0.2-0.2,0.3V69z"/><path id="XMLID_1200_" fill="#594454" d="M47,91h-4c-0.3,0-0.5-0.2-0.5-0.5v-16c0-0.3,0.2-0.5,0.5-0.5h4c0.3,0,0.5,0.2,0.5,0.5v16     C47.5,90.8,47.3,91,47,91z M43.5,90h3V75h-3V90z"/><path id="XMLID_1199_" fill="#594454" d="M47,75h-4c-0.3,0-0.5-0.2-0.5-0.5v-7c0-1.1,0.5-2.1,1.4-2.8l0.8-0.6c0.2-0.1,0.4-0.1,0.6,0l0.8,0.6     c0.9,0.7,1.4,1.7,1.4,2.8v7C47.5,74.8,47.3,75,47,75z M43.5,74h3v-6.5c0-0.8-0.4-1.5-1-2L45,65.1l-0.5,0.4c-0.6,0.5-1,1.2-1,2V74     z"/><path id="XMLID_1198_" fill="#594454" d="M47,69c-0.3,0-0.5-0.2-0.5-0.5v-11c0-0.8-0.4-1.5-1-2L45,55.1l-0.5,0.4c-0.6,0.5-1,1.2-1,2v11     c0,0.3-0.2,0.5-0.5,0.5s-0.5-0.2-0.5-0.5v-11c0-1.1,0.5-2.1,1.4-2.8l0.8-0.6c0.2-0.1,0.4-0.1,0.6,0l0.8,0.6     c0.9,0.7,1.4,1.7,1.4,2.8v11C47.5,68.8,47.3,69,47,69z"/><path id="XMLID_1196_" fill="#594454" d="M47,59c-0.3,0-0.5-0.2-0.5-0.5v-10c0-0.8-0.4-1.5-1-2L45,46.1l-0.5,0.4c-0.6,0.5-1,1.2-1,2v10     c0,0.3-0.2,0.5-0.5,0.5s-0.5-0.2-0.5-0.5v-10c0-1.1,0.5-2.1,1.4-2.8l0.8-0.6c0.2-0.1,0.4-0.1,0.6,0l0.8,0.6     c0.9,0.7,1.4,1.7,1.4,2.8v10C47.5,58.8,47.3,59,47,59z"/><path id="XMLID_1195_" fill="#594454" d="M47,49c-0.3,0-0.5-0.2-0.5-0.5v-10c0-0.8-0.4-1.5-1-2L45,36.1l-0.5,0.4c-0.6,0.5-1,1.2-1,2v7     c0,0.3-0.2,0.5-0.5,0.5s-0.5-0.2-0.5-0.5v-7c0-1.1,0.5-2.1,1.4-2.8l0.8-0.6c0.2-0.1,0.4-0.1,0.6,0l0.8,0.6     c0.9,0.7,1.4,1.7,1.4,2.8v10C47.5,48.8,47.3,49,47,49z"/><path id="XMLID_1194_" fill="#594454" d="M37,75h-4c-0.3,0-0.5-0.2-0.5-0.5v-7c0-1.1,0.5-2.1,1.4-2.8l0.8-0.6c0.2-0.1,0.4-0.1,0.6,0l0.8,0.6     c0.9,0.7,1.4,1.7,1.4,2.8v7C37.5,74.8,37.3,75,37,75z M33.5,74h3v-6.5c0-0.8-0.4-1.5-1-2L35,65.1l-0.5,0.4c-0.6,0.5-1,1.2-1,2V74     z"/><path id="XMLID_1193_" fill="#594454" d="M37,67c-0.3,0-0.5-0.2-0.5-0.5v-7c0-0.8-0.4-1.5-1-2L35,57.1l-0.5,0.4c-0.6,0.5-1,1.2-1,2v7     c0,0.3-0.2,0.5-0.5,0.5s-0.5-0.2-0.5-0.5v-7c0-1.1,0.5-2.1,1.4-2.8l0.8-0.6c0.2-0.1,0.4-0.1,0.6,0l0.8,0.6     c0.9,0.7,1.4,1.7,1.4,2.8v7C37.5,66.8,37.3,67,37,67z"/><path id="XMLID_1192_" fill="#594454" d="M37,59c-0.3,0-0.5-0.2-0.5-0.5v-7c0-0.8-0.4-1.5-1-2L35,49.1l-0.5,0.4c-0.6,0.5-1,1.2-1,2v7     c0,0.3-0.2,0.5-0.5,0.5s-0.5-0.2-0.5-0.5v-7c0-1.1,0.5-2.1,1.4-2.8l0.8-0.6c0.2-0.1,0.4-0.1,0.6,0l0.8,0.6     c0.9,0.7,1.4,1.7,1.4,2.8v7C37.5,58.8,37.3,59,37,59z"/><path id="XMLID_1191_" fill="#594454" d="M37,50c-0.3,0-0.5-0.2-0.5-0.5v-7c0-0.8-0.4-1.5-1-2L35,40.1l-0.5,0.4c-0.6,0.5-1,1.2-1,2v7     c0,0.3-0.2,0.5-0.5,0.5s-0.5-0.2-0.5-0.5v-7c0-1.1,0.5-2.1,1.4-2.8l0.8-0.6c0.2-0.1,0.4-0.1,0.6,0l0.8,0.6     c0.9,0.7,1.4,1.7,1.4,2.8v7C37.5,49.8,37.3,50,37,50z"/><path id="XMLID_1190_" fill="#594454" d="M33,75h-4c-0.3,0-0.5-0.2-0.5-0.5v-7c0-1.1,0.5-2.1,1.4-2.8l0.8-0.6c0.2-0.1,0.4-0.1,0.6,0l0.8,0.6     c0.9,0.7,1.4,1.7,1.4,2.8v7C33.5,74.8,33.3,75,33,75z M29.5,74h3v-6.5c0-0.8-0.4-1.5-1-2L31,65.1l-0.5,0.4c-0.6,0.5-1,1.2-1,2V74     z"/><path id="XMLID_1189_" fill="#594454" d="M33,68c-0.3,0-0.5-0.2-0.5-0.5v-7c0-0.8-0.4-1.5-1-2L31,58.1l-0.5,0.4c-0.6,0.5-1,1.2-1,2v7     c0,0.3-0.2,0.5-0.5,0.5s-0.5-0.2-0.5-0.5v-7c0-1.1,0.5-2.1,1.4-2.8l0.8-0.6c0.2-0.1,0.4-0.1,0.6,0l0.8,0.6     c0.9,0.7,1.4,1.7,1.4,2.8v7C33.5,67.8,33.3,68,33,68z"/><path id="XMLID_1188_" fill="#594454" d="M33,60c-0.3,0-0.5-0.2-0.5-0.5v-7c0-0.8-0.4-1.5-1-2L31,50.1l-0.5,0.4c-0.6,0.5-1,1.2-1,2v7     c0,0.3-0.2,0.5-0.5,0.5s-0.5-0.2-0.5-0.5v-7c0-1.1,0.5-2.1,1.4-2.8l0.8-0.6c0.2-0.1,0.4-0.1,0.6,0l0.8,0.6     c0.9,0.7,1.4,1.7,1.4,2.8v7C33.5,59.8,33.3,60,33,60z"/><path id="XMLID_1187_" fill="#594454" d="M33,53c-0.3,0-0.5-0.2-0.5-0.5v-7c0-0.8-0.4-1.5-1-2L31,43.1l-0.5,0.4c-0.6,0.5-1,1.2-1,2v7     c0,0.3-0.2,0.5-0.5,0.5s-0.5-0.2-0.5-0.5v-7c0-1.1,0.5-2.1,1.4-2.8l0.8-0.6c0.2-0.1,0.4-0.1,0.6,0l0.8,0.6     c0.9,0.7,1.4,1.7,1.4,2.8v7C33.5,52.8,33.3,53,33,53z"/><path id="XMLID_1186_" fill="#594454" d="M57,75h-4c-0.3,0-0.5-0.2-0.5-0.5v-7c0-1.1,0.5-2.1,1.4-2.8l0.8-0.6c0.2-0.1,0.4-0.1,0.6,0l0.8,0.6     c0.9,0.7,1.4,1.7,1.4,2.8v7C57.5,74.8,57.3,75,57,75z M53.5,74h3v-6.5c0-0.8-0.4-1.5-1-2L55,65.1l-0.5,0.4c-0.6,0.5-1,1.2-1,2V74     z"/><path id="XMLID_1185_" fill="#594454" d="M57,68c-0.3,0-0.5-0.2-0.5-0.5v-10c0-0.8-0.4-1.5-1-2L55,55.1l-0.5,0.4c-0.6,0.5-1,1.2-1,2v10     c0,0.3-0.2,0.5-0.5,0.5s-0.5-0.2-0.5-0.5v-10c0-1.1,0.5-2.1,1.4-2.8l0.8-0.6c0.2-0.1,0.4-0.1,0.6,0l0.8,0.6     c0.9,0.7,1.4,1.7,1.4,2.8v10C57.5,67.8,57.3,68,57,68z"/><path id="XMLID_1184_" fill="#594454" d="M57,58c-0.3,0-0.5-0.2-0.5-0.5v-9c0-0.8-0.4-1.5-1-2L55,46.1l-0.5,0.4c-0.6,0.5-1,1.2-1,2v7     c0,0.3-0.2,0.5-0.5,0.5s-0.5-0.2-0.5-0.5v-7c0-1.1,0.5-2.1,1.4-2.8l0.8-0.6c0.2-0.1,0.4-0.1,0.6,0l0.8,0.6     c0.9,0.7,1.4,1.7,1.4,2.8v9C57.5,57.8,57.3,58,57,58z"/><path id="XMLID_1183_" fill="#594454" d="M57,50c-0.3,0-0.5-0.2-0.5-0.5v-11c0-0.8-0.4-1.5-1-2L55,36.1l-0.5,0.4c-0.6,0.5-1,1.2-1,2v11     c0,0.3-0.2,0.5-0.5,0.5s-0.5-0.2-0.5-0.5v-11c0-1.1,0.5-2.1,1.4-2.8l0.8-0.6c0.2-0.1,0.4-0.1,0.6,0l0.8,0.6     c0.9,0.7,1.4,1.7,1.4,2.8v11C57.5,49.8,57.3,50,57,50z"/><path id="XMLID_1171_" fill="#594454" d="M43,91h-6c-0.3,0-0.5-0.2-0.5-0.5v-16c0-0.3,0.2-0.5,0.5-0.5h6c0.3,0,0.5,0.2,0.5,0.5v16     C43.5,90.8,43.3,91,43,91z M37.5,90h5V75h-5V90z"/><path id="XMLID_1170_" fill="#594454" d="M37,91h-4c-0.3,0-0.5-0.2-0.5-0.5v-16c0-0.3,0.2-0.5,0.5-0.5h4c0.3,0,0.5,0.2,0.5,0.5v16     C37.5,90.8,37.3,91,37,91z M33.5,90h3V75h-3V90z"/><path id="XMLID_1169_" fill="#594454" d="M33,91h-4c-0.3,0-0.5-0.2-0.5-0.5v-16c0-0.3,0.2-0.5,0.5-0.5h4c0.3,0,0.5,0.2,0.5,0.5v16     C33.5,90.8,33.3,91,33,91z M29.5,90h3V75h-3V90z"/><path id="XMLID_1167_" fill="#594454" d="M23,63c-0.3,0-0.5-0.2-0.5-0.5v-7c0-0.8-0.4-1.5-1-2L21,53.1l-0.5,0.4c-0.6,0.5-1,1.2-1,2v7     c0,0.3-0.2,0.5-0.5,0.5s-0.5-0.2-0.5-0.5v-7c0-1.1,0.5-2.1,1.4-2.8l0.8-0.6c0.2-0.1,0.4-0.1,0.6,0l0.8,0.6     c0.9,0.7,1.4,1.7,1.4,2.8v7C23.5,62.8,23.3,63,23,63z"/><path id="XMLID_1166_" fill="#594454" d="M23,70c-0.3,0-0.5-0.2-0.5-0.5v-7c0-0.8-0.4-1.5-1-2L21,60.1l-0.5,0.4c-0.6,0.5-1,1.2-1,2v7     c0,0.3-0.2,0.5-0.5,0.5s-0.5-0.2-0.5-0.5v-7c0-1.1,0.5-2.1,1.4-2.8l0.8-0.6c0.2-0.1,0.4-0.1,0.6,0l0.8,0.6     c0.9,0.7,1.4,1.7,1.4,2.8v7C23.5,69.8,23.3,70,23,70z"/><path id="XMLID_1165_" fill="#594454" d="M23,77c-0.3,0-0.5-0.2-0.5-0.5v-7c0-0.8-0.4-1.5-1-2L21,67.1l-0.5,0.4c-0.6,0.5-1,1.2-1,2v7     c0,0.3-0.2,0.5-0.5,0.5s-0.5-0.2-0.5-0.5v-7c0-1.1,0.5-2.1,1.4-2.8l0.8-0.6c0.2-0.1,0.4-0.1,0.6,0l0.8,0.6     c0.9,0.7,1.4,1.7,1.4,2.8v7C23.5,76.8,23.3,77,23,77z"/><path id="XMLID_1164_" fill="#f17e5b" d="M55,54c-0.3,0-0.5-0.2-0.5-0.5v-4c0-0.3,0.2-0.5,0.5-0.5s0.5,0.2,0.5,0.5v4C55.5,53.8,55.3,54,55,54z"/><path id="XMLID_1163_" fill="#f17e5b" d="M55,64c-0.3,0-0.5-0.2-0.5-0.5v-5c0-0.3,0.2-0.5,0.5-0.5s0.5,0.2,0.5,0.5v5C55.5,63.8,55.3,64,55,64z"/><path id="XMLID_1162_" fill="#f17e5b" d="M45,54c-0.3,0-0.5-0.2-0.5-0.5v-4c0-0.3,0.2-0.5,0.5-0.5s0.5,0.2,0.5,0.5v4C45.5,53.8,45.3,54,45,54z"/><path id="XMLID_1161_" fill="#f17e5b" d="M55,45c-0.3,0-0.5-0.2-0.5-0.5v-5c0-0.3,0.2-0.5,0.5-0.5s0.5,0.2,0.5,0.5v5C55.5,44.8,55.3,45,55,45z"/><path id="XMLID_1160_" fill="#f17e5b" d="M45,45c-0.3,0-0.5-0.2-0.5-0.5v-5c0-0.3,0.2-0.5,0.5-0.5s0.5,0.2,0.5,0.5v5C45.5,44.8,45.3,45,45,45z"/><path id="XMLID_1159_" fill="#f17e5b" d="M45,64c-0.3,0-0.5-0.2-0.5-0.5v-5c0-0.3,0.2-0.5,0.5-0.5s0.5,0.2,0.5,0.5v5C45.5,63.8,45.3,64,45,64z"/><path id="XMLID_1158_" fill="#f17e5b" d="M35,56c-0.3,0-0.5-0.2-0.5-0.5v-3c0-0.3,0.2-0.5,0.5-0.5s0.5,0.2,0.5,0.5v3C35.5,55.8,35.3,56,35,56z"/><path id="XMLID_1157_" fill="#f17e5b" d="M35,64c-0.3,0-0.5-0.2-0.5-0.5v-3c0-0.3,0.2-0.5,0.5-0.5s0.5,0.2,0.5,0.5v3C35.5,63.8,35.3,64,35,64z"/><path id="XMLID_1156_" fill="#f17e5b" d="M31,57c-0.3,0-0.5-0.2-0.5-0.5v-3c0-0.3,0.2-0.5,0.5-0.5s0.5,0.2,0.5,0.5v3C31.5,56.8,31.3,57,31,57z"/><path id="XMLID_1155_" fill="#f17e5b" d="M35,48c-0.3,0-0.5-0.2-0.5-0.5v-4c0-0.3,0.2-0.5,0.5-0.5s0.5,0.2,0.5,0.5v4C35.5,47.8,35.3,48,35,48z"/><path id="XMLID_1154_" fill="#f17e5b" d="M31,49c-0.3,0-0.5-0.2-0.5-0.5v-2c0-0.3,0.2-0.5,0.5-0.5s0.5,0.2,0.5,0.5v2C31.5,48.8,31.3,49,31,49z"/><path id="XMLID_1153_" fill="#f17e5b" d="M31,64c-0.3,0-0.5-0.2-0.5-0.5v-2c0-0.3,0.2-0.5,0.5-0.5s0.5,0.2,0.5,0.5v2C31.5,63.8,31.3,64,31,64z"/><path id="XMLID_1152_" fill="#594454" d="M50,34.9c-0.3,0-0.5-0.2-0.5-0.5v-2c0-0.3,0.2-0.5,0.5-0.5s0.5,0.2,0.5,0.5v2C50.5,34.7,50.3,34.9,50,34.9z     "/><path id="XMLID_1146_" fill="#594454" d="M60,38c-0.3,0-0.5-0.2-0.5-0.5v-2c0-0.3,0.2-0.5,0.5-0.5s0.5,0.2,0.5,0.5v2C60.5,37.8,60.3,38,60,38z"/><path id="XMLID_1145_" fill="#594454" d="M43,49.6c-0.3,0-0.5-0.2-0.5-0.5v-8.4c0-0.7-0.4-1.4-1-1.8L40,38.1l-1.5,0.8c-0.6,0.4-1,1.1-1,1.8v5.4     c0,0.3-0.2,0.5-0.5,0.5s-0.5-0.2-0.5-0.5v-5.4c0-1.1,0.6-2.1,1.5-2.7l1.7-1c0.2-0.1,0.3-0.1,0.5,0l1.7,1c1,0.5,1.5,1.6,1.5,2.7     v8.4C43.5,49.4,43.3,49.6,43,49.6z"/><path id="XMLID_1144_" fill="#594454" d="M41,43h-2c-0.3,0-0.5-0.2-0.5-0.5v-1.9c0-0.5,0.3-0.9,0.7-1.2l0.6-0.3c0.2-0.1,0.3-0.1,0.5,0l0.6,0.3     c0.4,0.2,0.7,0.7,0.7,1.2v1.9C41.5,42.8,41.3,43,41,43z M39.5,42h1v-1.4c0-0.1-0.1-0.2-0.2-0.3L40,40.1l-0.3,0.2     c-0.1,0.1-0.2,0.2-0.2,0.3V42z"/><path id="XMLID_1143_" fill="#594454" d="M43,55.6c-0.3,0-0.5-0.2-0.5-0.5v-5.4c0-0.7-0.4-1.4-1-1.8L40,47.1l-1.5,0.8c-0.6,0.4-1,1.1-1,1.8v5.4     c0,0.3-0.2,0.5-0.5,0.5s-0.5-0.2-0.5-0.5v-5.4c0-1.1,0.6-2.1,1.5-2.7l1.7-1c0.2-0.1,0.3-0.1,0.5,0l1.7,1c1,0.5,1.5,1.6,1.5,2.7     v5.4C43.5,55.4,43.3,55.6,43,55.6z"/><path id="XMLID_1142_" fill="#594454" d="M41,52h-2c-0.3,0-0.5-0.2-0.5-0.5v-1.9c0-0.5,0.3-0.9,0.7-1.2l0.6-0.3c0.2-0.1,0.3-0.1,0.5,0l0.6,0.3     c0.4,0.2,0.7,0.7,0.7,1.2v1.9C41.5,51.8,41.3,52,41,52z M39.5,51h1v-1.4c0-0.1-0.1-0.2-0.2-0.3L40,49.1l-0.3,0.2     c-0.1,0.1-0.2,0.2-0.2,0.3V51z"/><path id="XMLID_1141_" fill="#594454" d="M43,64.6c-0.3,0-0.5-0.2-0.5-0.5v-5.4c0-0.7-0.4-1.4-1-1.8L40,56.1l-1.5,0.8c-0.6,0.4-1,1.1-1,1.8v5.4     c0,0.3-0.2,0.5-0.5,0.5s-0.5-0.2-0.5-0.5v-5.4c0-1.1,0.6-2.1,1.5-2.7l1.7-1c0.2-0.1,0.3-0.1,0.5,0l1.7,1c1,0.5,1.5,1.6,1.5,2.7     v5.4C43.5,64.4,43.3,64.6,43,64.6z"/><path id="XMLID_1140_" fill="#594454" d="M43,73.6c-0.3,0-0.5-0.2-0.5-0.5v-5.4c0-0.7-0.4-1.4-1-1.8L40,65.1l-1.5,0.8c-0.6,0.4-1,1.1-1,1.8v5.4     c0,0.3-0.2,0.5-0.5,0.5s-0.5-0.2-0.5-0.5v-5.4c0-1.1,0.6-2.1,1.5-2.7l1.7-1c0.2-0.1,0.3-0.1,0.5,0l1.7,1c1,0.5,1.5,1.6,1.5,2.7     v5.4C43.5,73.4,43.3,73.6,43,73.6z"/><path id="XMLID_1139_" fill="#594454" d="M41,70h-2c-0.3,0-0.5-0.2-0.5-0.5v-1.9c0-0.5,0.3-0.9,0.7-1.2l0.6-0.3c0.2-0.1,0.3-0.1,0.5,0l0.6,0.3     c0.4,0.2,0.7,0.7,0.7,1.2v1.9C41.5,69.8,41.3,70,41,70z M39.5,69h1v-1.4c0-0.1-0.1-0.2-0.2-0.3L40,67.1l-0.3,0.2     c-0.1,0.1-0.2,0.2-0.2,0.3V69z"/><path id="XMLID_1138_" fill="#594454" d="M40,38c-0.3,0-0.5-0.2-0.5-0.5v-2c0-0.3,0.2-0.5,0.5-0.5s0.5,0.2,0.5,0.5v2C40.5,37.8,40.3,38,40,38z"/><path id="XMLID_1137_" fill="#594454" d="M29,56.6c-0.3,0-0.5-0.2-0.5-0.5v-5.4c0-0.7-0.4-1.4-1-1.8L26,48.1l-1.5,0.8c-0.6,0.4-1,1.1-1,1.8v5.4     c0,0.3-0.2,0.5-0.5,0.5s-0.5-0.2-0.5-0.5v-5.4c0-1.1,0.6-2.1,1.5-2.7l1.7-1c0.2-0.1,0.3-0.1,0.5,0l1.7,1c1,0.5,1.5,1.6,1.5,2.7     v5.4C29.5,56.4,29.3,56.6,29,56.6z"/><path id="XMLID_1134_" fill="#594454" d="M29,60.6c-0.3,0-0.5-0.2-0.5-0.5v-5.4c0-0.7-0.4-1.4-1-1.8L26,52.1l-1.5,0.8c-0.6,0.4-1,1.1-1,1.8v5.4     c0,0.3-0.2,0.5-0.5,0.5s-0.5-0.2-0.5-0.5v-5.4c0-1.1,0.6-2.1,1.5-2.7l1.7-1c0.2-0.1,0.3-0.1,0.5,0l1.7,1c1,0.5,1.5,1.6,1.5,2.7     v5.4C29.5,60.4,29.3,60.6,29,60.6z"/><path id="XMLID_1133_" fill="#594454" d="M26,48c-0.3,0-0.5-0.2-0.5-0.5v-2c0-0.3,0.2-0.5,0.5-0.5s0.5,0.2,0.5,0.5v2C26.5,47.8,26.3,48,26,48z"/><path id="XMLID_1132_" fill="#594454" d="M77,67.6c-0.3,0-0.5-0.2-0.5-0.5v-5.4c0-0.7-0.4-1.4-1-1.8L74,59.1l-1.5,0.8c-0.6,0.4-1,1.1-1,1.8v5.4     c0,0.3-0.2,0.5-0.5,0.5s-0.5-0.2-0.5-0.5v-5.4c0-1.1,0.6-2.1,1.5-2.7l1.7-1c0.2-0.1,0.3-0.1,0.5,0l1.7,1c1,0.5,1.5,1.6,1.5,2.7     v5.4C77.5,67.4,77.3,67.6,77,67.6z"/><path id="XMLID_1123_" fill="#594454" d="M75,71h-2c-0.3,0-0.5-0.2-0.5-0.5v-1.9c0-0.5,0.3-0.9,0.7-1.2l0.6-0.3c0.2-0.1,0.3-0.1,0.5,0l0.6,0.3     c0.4,0.2,0.7,0.7,0.7,1.2v1.9C75.5,70.8,75.3,71,75,71z M73.5,70h1v-1.4c0-0.1-0.1-0.2-0.2-0.3L74,68.1l-0.3,0.2     c-0.1,0.1-0.2,0.2-0.2,0.3V70z"/><path id="XMLID_1122_" fill="#594454" d="M77,74.6c-0.3,0-0.5-0.2-0.5-0.5v-5.4c0-0.7-0.4-1.4-1-1.8L74,66.1l-1.5,0.8c-0.6,0.4-1,1.1-1,1.8v5.4     c0,0.3-0.2,0.5-0.5,0.5s-0.5-0.2-0.5-0.5v-5.4c0-1.1,0.6-2.1,1.5-2.7l1.7-1c0.2-0.1,0.3-0.1,0.5,0l1.7,1c1,0.5,1.5,1.6,1.5,2.7     v5.4C77.5,74.4,77.3,74.6,77,74.6z"/><path id="XMLID_1117_" fill="#594454" d="M75,57h-2c-0.3,0-0.5-0.2-0.5-0.5v-1.9c0-0.5,0.3-0.9,0.7-1.2l0.6-0.3c0.2-0.1,0.3-0.1,0.5,0l0.6,0.3     c0.4,0.2,0.7,0.7,0.7,1.2v1.9C75.5,56.8,75.3,57,75,57z M73.5,56h1v-1.4c0-0.1-0.1-0.2-0.2-0.3L74,54.1l-0.3,0.2     c-0.1,0.1-0.2,0.2-0.2,0.3V56z"/><path id="XMLID_1114_" fill="#594454" d="M67,75h-4c-0.3,0-0.5-0.2-0.5-0.5v-7c0-1.1,0.5-2.1,1.4-2.8l0.8-0.6c0.2-0.1,0.4-0.1,0.6,0l0.8,0.6     c0.9,0.7,1.4,1.7,1.4,2.8v7C67.5,74.8,67.3,75,67,75z M63.5,74h3v-6.5c0-0.8-0.4-1.5-1-2L65,65.1l-0.5,0.4c-0.6,0.5-1,1.2-1,2V74     z"/><path id="XMLID_1113_" fill="#594454" d="M67,67c-0.3,0-0.5-0.2-0.5-0.5v-7c0-0.8-0.4-1.5-1-2L65,57.1l-0.5,0.4c-0.6,0.5-1,1.2-1,2v7     c0,0.3-0.2,0.5-0.5,0.5s-0.5-0.2-0.5-0.5v-7c0-1.1,0.5-2.1,1.4-2.8l0.8-0.6c0.2-0.1,0.4-0.1,0.6,0l0.8,0.6     c0.9,0.7,1.4,1.7,1.4,2.8v7C67.5,66.8,67.3,67,67,67z"/><path id="XMLID_1108_" fill="#594454" d="M67,59c-0.3,0-0.5-0.2-0.5-0.5v-7c0-0.8-0.4-1.5-1-2L65,49.1l-0.5,0.4c-0.6,0.5-1,1.2-1,2v7     c0,0.3-0.2,0.5-0.5,0.5s-0.5-0.2-0.5-0.5v-7c0-1.1,0.5-2.1,1.4-2.8l0.8-0.6c0.2-0.1,0.4-0.1,0.6,0l0.8,0.6     c0.9,0.7,1.4,1.7,1.4,2.8v7C67.5,58.8,67.3,59,67,59z"/><path id="XMLID_1106_" fill="#594454" d="M67,50c-0.3,0-0.5-0.2-0.5-0.5v-7c0-0.8-0.4-1.5-1-2L65,40.1l-0.5,0.4c-0.6,0.5-1,1.2-1,2v7     c0,0.3-0.2,0.5-0.5,0.5s-0.5-0.2-0.5-0.5v-7c0-1.1,0.5-2.1,1.4-2.8l0.8-0.6c0.2-0.1,0.4-0.1,0.6,0l0.8,0.6     c0.9,0.7,1.4,1.7,1.4,2.8v7C67.5,49.8,67.3,50,67,50z"/><path id="XMLID_1105_" fill="#594454" d="M71,75h-4c-0.3,0-0.5-0.2-0.5-0.5v-7c0-1.1,0.5-2.1,1.4-2.8l0.8-0.6c0.2-0.1,0.4-0.1,0.6,0l0.8,0.6     c0.9,0.7,1.4,1.7,1.4,2.8v7C71.5,74.8,71.3,75,71,75z M67.5,74h3v-6.5c0-0.8-0.4-1.5-1-2L69,65.1l-0.5,0.4c-0.6,0.5-1,1.2-1,2V74     z"/><path id="XMLID_1093_" fill="#594454" d="M71,68c-0.3,0-0.5-0.2-0.5-0.5v-7c0-0.8-0.4-1.5-1-2L69,58.1l-0.5,0.4c-0.6,0.5-1,1.2-1,2v7     c0,0.3-0.2,0.5-0.5,0.5s-0.5-0.2-0.5-0.5v-7c0-1.1,0.5-2.1,1.4-2.8l0.8-0.6c0.2-0.1,0.4-0.1,0.6,0l0.8,0.6     c0.9,0.7,1.4,1.7,1.4,2.8v7C71.5,67.8,71.3,68,71,68z"/><path id="XMLID_1077_" fill="#594454" d="M71,60c-0.3,0-0.5-0.2-0.5-0.5v-7c0-0.8-0.4-1.5-1-2L69,50.1l-0.5,0.4c-0.6,0.5-1,1.2-1,2v7     c0,0.3-0.2,0.5-0.5,0.5s-0.5-0.2-0.5-0.5v-7c0-1.1,0.5-2.1,1.4-2.8l0.8-0.6c0.2-0.1,0.4-0.1,0.6,0l0.8,0.6     c0.9,0.7,1.4,1.7,1.4,2.8v7C71.5,59.8,71.3,60,71,60z"/><path id="XMLID_1076_" fill="#594454" d="M71,53c-0.3,0-0.5-0.2-0.5-0.5v-7c0-0.8-0.4-1.5-1-2L69,43.1l-0.5,0.4c-0.6,0.5-1,1.2-1,2v7     c0,0.3-0.2,0.5-0.5,0.5s-0.5-0.2-0.5-0.5v-7c0-1.1,0.5-2.1,1.4-2.8l0.8-0.6c0.2-0.1,0.4-0.1,0.6,0l0.8,0.6     c0.9,0.7,1.4,1.7,1.4,2.8v7C71.5,52.8,71.3,53,71,53z"/><path id="XMLID_1073_" fill="#594454" d="M81,63c-0.3,0-0.5-0.2-0.5-0.5v-7c0-0.8-0.4-1.5-1-2L79,53.1l-0.5,0.4c-0.6,0.5-1,1.2-1,2v7     c0,0.3-0.2,0.5-0.5,0.5s-0.5-0.2-0.5-0.5v-7c0-1.1,0.5-2.1,1.4-2.8l0.8-0.6c0.2-0.1,0.4-0.1,0.6,0l0.8,0.6     c0.9,0.7,1.4,1.7,1.4,2.8v7C81.5,62.8,81.3,63,81,63z"/><path id="XMLID_1072_" fill="#594454" d="M81,70c-0.3,0-0.5-0.2-0.5-0.5v-7c0-0.8-0.4-1.5-1-2L79,60.1l-0.5,0.4c-0.6,0.5-1,1.2-1,2v7     c0,0.3-0.2,0.5-0.5,0.5s-0.5-0.2-0.5-0.5v-7c0-1.1,0.5-2.1,1.4-2.8l0.8-0.6c0.2-0.1,0.4-0.1,0.6,0l0.8,0.6     c0.9,0.7,1.4,1.7,1.4,2.8v7C81.5,69.8,81.3,70,81,70z"/><path id="XMLID_1071_" fill="#594454" d="M81,77c-0.3,0-0.5-0.2-0.5-0.5v-7c0-0.8-0.4-1.5-1-2L79,67.1l-0.5,0.4c-0.6,0.5-1,1.2-1,2v7     c0,0.3-0.2,0.5-0.5,0.5s-0.5-0.2-0.5-0.5v-7c0-1.1,0.5-2.1,1.4-2.8l0.8-0.6c0.2-0.1,0.4-0.1,0.6,0l0.8,0.6     c0.9,0.7,1.4,1.7,1.4,2.8v7C81.5,76.8,81.3,77,81,77z"/><path id="XMLID_1070_" fill="#594454" d="M77,56.6c-0.3,0-0.5-0.2-0.5-0.5v-5.4c0-0.7-0.4-1.4-1-1.8L74,48.1l-1.5,0.8c-0.6,0.4-1,1.1-1,1.8v5.4     c0,0.3-0.2,0.5-0.5,0.5s-0.5-0.2-0.5-0.5v-5.4c0-1.1,0.6-2.1,1.5-2.7l1.7-1c0.2-0.1,0.3-0.1,0.5,0l1.7,1c1,0.5,1.5,1.6,1.5,2.7     v5.4C77.5,56.4,77.3,56.6,77,56.6z"/><path id="XMLID_1069_" fill="#594454" d="M77,60.6c-0.3,0-0.5-0.2-0.5-0.5v-5.4c0-0.7-0.4-1.4-1-1.8L74,52.1l-1.5,0.8c-0.6,0.4-1,1.1-1,1.8v5.4     c0,0.3-0.2,0.5-0.5,0.5s-0.5-0.2-0.5-0.5v-5.4c0-1.1,0.6-2.1,1.5-2.7l1.7-1c0.2-0.1,0.3-0.1,0.5,0l1.7,1c1,0.5,1.5,1.6,1.5,2.7     v5.4C77.5,60.4,77.3,60.6,77,60.6z"/><path id="XMLID_1068_" fill="#594454" d="M74,48c-0.3,0-0.5-0.2-0.5-0.5v-2c0-0.3,0.2-0.5,0.5-0.5s0.5,0.2,0.5,0.5v2C74.5,47.8,74.3,48,74,48z"/><path id="XMLID_1067_" fill="#594454" d="M41,86h-2c-0.3,0-0.5-0.2-0.5-0.5v-4c0-0.3,0.2-0.5,0.5-0.5h2c0.3,0,0.5,0.2,0.5,0.5v4     C41.5,85.8,41.3,86,41,86z M39.5,85h1v-3h-1V85z"/><path id="XMLID_1066_" fill="#f17e5b" d="M29,81c-0.3,0-0.5-0.2-0.5-0.5c0-0.3-0.2-0.5-0.5-0.5c-0.1,0-0.2,0-0.3,0.1c-0.1,0.1-0.3,0.1-0.5,0     C27.1,80.1,27,80,27,79.8c-0.1-0.5-0.5-0.8-1-0.8c-0.5,0-0.9,0.3-1,0.8c0,0.2-0.1,0.3-0.3,0.4c-0.1,0.1-0.3,0-0.5,0     C24.2,80,24.1,80,24,80c-0.3,0-0.5,0.2-0.5,0.5c0,0.3-0.2,0.5-0.5,0.5s-0.5-0.2-0.5-0.5c0-0.9,0.9-1.6,1.8-1.5c0.3-0.6,1-1,1.7-1     s1.4,0.4,1.7,1c0.9-0.2,1.8,0.6,1.8,1.5C29.5,80.8,29.3,81,29,81z"/><path id="XMLID_1065_" fill="#594454" d="M29,91h-6c-0.3,0-0.5-0.2-0.5-0.5v-16c0-0.3,0.2-0.5,0.5-0.5h6c0.3,0,0.5,0.2,0.5,0.5v16     C29.5,90.8,29.3,91,29,91z M23.5,90h5V75h-5V90z"/><path id="XMLID_1064_" fill="#594454" d="M23,91h-4c-0.3,0-0.5-0.2-0.5-0.5v-16c0-0.3,0.2-0.5,0.5-0.5h4c0.3,0,0.5,0.2,0.5,0.5v16     C23.5,90.8,23.3,91,23,91z M19.5,90h3V75h-3V90z"/><path id="XMLID_1063_" fill="#594454" d="M27,86h-2c-0.3,0-0.5-0.2-0.5-0.5v-4c0-0.3,0.2-0.5,0.5-0.5h2c0.3,0,0.5,0.2,0.5,0.5v4     C27.5,85.8,27.3,86,27,86z M25.5,85h1v-3h-1V85z"/><path id="XMLID_1062_" fill="#594454" d="M29,80c-0.3,0-0.5-0.2-0.5-0.5c0-0.3-0.2-0.5-0.5-0.5c-0.1,0-0.2,0-0.3,0.1c-0.1,0.1-0.3,0.1-0.5,0     C27.1,79.1,27,79,27,78.8c-0.1-0.5-0.5-0.8-1-0.8c-0.5,0-0.9,0.3-1,0.8c0,0.2-0.1,0.3-0.3,0.4c-0.1,0.1-0.3,0-0.5,0     C24.2,79,24.1,79,24,79c-0.3,0-0.5,0.2-0.5,0.5c0,0.3-0.2,0.5-0.5,0.5s-0.5-0.2-0.5-0.5c0-0.9,0.9-1.7,1.8-1.5c0.3-0.6,1-1,1.7-1     s1.4,0.4,1.7,1c0.9-0.2,1.8,0.6,1.8,1.5C29.5,79.8,29.3,80,29,80z"/><path id="XMLID_1061_" fill="#594454" d="M57,91h-4c-0.3,0-0.5-0.2-0.5-0.5v-16c0-0.3,0.2-0.5,0.5-0.5h4c0.3,0,0.5,0.2,0.5,0.5v16     C57.5,90.8,57.3,91,57,91z M53.5,90h3V75h-3V90z"/><path id="XMLID_1060_" fill="#594454" d="M53,91h-6c-0.3,0-0.5-0.2-0.5-0.5v-16c0-0.3,0.2-0.5,0.5-0.5h6c0.3,0,0.5,0.2,0.5,0.5v16     C53.5,90.8,53.3,91,53,91z M47.5,90h5V75h-5V90z"/><path id="XMLID_1059_" fill="#594454" d="M51,86h-2c-0.3,0-0.5-0.2-0.5-0.5v-4c0-0.3,0.2-0.5,0.5-0.5h2c0.3,0,0.5,0.2,0.5,0.5v4     C51.5,85.8,51.3,86,51,86z M49.5,85h1v-3h-1V85z"/><path id="XMLID_1058_" fill="#594454" d="M53,80c-0.3,0-0.5-0.2-0.5-0.5c0-0.3-0.2-0.5-0.5-0.5c-0.1,0-0.2,0-0.3,0.1c-0.1,0.1-0.3,0.1-0.5,0     C51.1,79.1,51,79,51,78.8c-0.1-0.5-0.5-0.8-1-0.8c-0.5,0-0.9,0.3-1,0.8c0,0.2-0.1,0.3-0.3,0.4c-0.2,0.1-0.3,0-0.5,0     C48.2,79,48.1,79,48,79c-0.3,0-0.5,0.2-0.5,0.5c0,0.3-0.2,0.5-0.5,0.5s-0.5-0.2-0.5-0.5c0-0.9,0.9-1.7,1.8-1.5c0.3-0.6,1-1,1.7-1     s1.4,0.4,1.7,1c0.9-0.2,1.8,0.6,1.8,1.5C53.5,79.8,53.3,80,53,80z"/><path id="XMLID_1057_" fill="#594454" d="M67,91h-4c-0.3,0-0.5-0.2-0.5-0.5v-16c0-0.3,0.2-0.5,0.5-0.5h4c0.3,0,0.5,0.2,0.5,0.5v16     C67.5,90.8,67.3,91,67,91z M63.5,90h3V75h-3V90z"/><path id="XMLID_1056_" fill="#594454" d="M63,91h-6c-0.3,0-0.5-0.2-0.5-0.5v-16c0-0.3,0.2-0.5,0.5-0.5h6c0.3,0,0.5,0.2,0.5,0.5v16     C63.5,90.8,63.3,91,63,91z M57.5,90h5V75h-5V90z"/><path id="XMLID_1055_" fill="#594454" d="M71,91h-4c-0.3,0-0.5-0.2-0.5-0.5v-16c0-0.3,0.2-0.5,0.5-0.5h4c0.3,0,0.5,0.2,0.5,0.5v16     C71.5,90.8,71.3,91,71,91z M67.5,90h3V75h-3V90z"/><path id="XMLID_1054_" fill="#594454" d="M81,91h-4c-0.3,0-0.5-0.2-0.5-0.5v-16c0-0.3,0.2-0.5,0.5-0.5h4c0.3,0,0.5,0.2,0.5,0.5v16     C81.5,90.8,81.3,91,81,91z M77.5,90h3V75h-3V90z"/><path id="XMLID_1053_" fill="#f17e5b" d="M21,59c-0.3,0-0.5-0.2-0.5-0.5v-2c0-0.3,0.2-0.5,0.5-0.5s0.5,0.2,0.5,0.5v2C21.5,58.8,21.3,59,21,59z"/><path id="XMLID_1052_" fill="#f17e5b" d="M21,66c-0.3,0-0.5-0.2-0.5-0.5v-2c0-0.3,0.2-0.5,0.5-0.5s0.5,0.2,0.5,0.5v2C21.5,65.8,21.3,66,21,66z"/><path id="XMLID_1051_" fill="#f17e5b" d="M21,74c-0.3,0-0.5-0.2-0.5-0.5v-3c0-0.3,0.2-0.5,0.5-0.5s0.5,0.2,0.5,0.5v3C21.5,73.8,21.3,74,21,74z"/><path id="XMLID_1050_" fill="#f17e5b" d="M31,88c-0.3,0-0.5-0.2-0.5-0.5v-8c0-0.3,0.2-0.5,0.5-0.5s0.5,0.2,0.5,0.5v8C31.5,87.8,31.3,88,31,88z"/><path id="XMLID_1049_" fill="#f17e5b" d="M35,88c-0.3,0-0.5-0.2-0.5-0.5v-8c0-0.3,0.2-0.5,0.5-0.5s0.5,0.2,0.5,0.5v8C35.5,87.8,35.3,88,35,88z"/><path id="XMLID_1048_" fill="#f17e5b" d="M45,88c-0.3,0-0.5-0.2-0.5-0.5v-8c0-0.3,0.2-0.5,0.5-0.5s0.5,0.2,0.5,0.5v8C45.5,87.8,45.3,88,45,88z"/><path id="XMLID_1047_" fill="#f17e5b" d="M55,74c-0.3,0-0.5-0.2-0.5-0.5v-5c0-0.3,0.2-0.5,0.5-0.5s0.5,0.2,0.5,0.5v5C55.5,73.8,55.3,74,55,74z"/><path id="XMLID_1046_" fill="#f17e5b" d="M45,74c-0.3,0-0.5-0.2-0.5-0.5v-5c0-0.3,0.2-0.5,0.5-0.5s0.5,0.2,0.5,0.5v5C45.5,73.8,45.3,74,45,74z"/><path id="XMLID_1045_" fill="#f17e5b" d="M35,74c-0.3,0-0.5-0.2-0.5-0.5v-5c0-0.3,0.2-0.5,0.5-0.5s0.5,0.2,0.5,0.5v5C35.5,73.8,35.3,74,35,74z"/><path id="XMLID_1044_" fill="#f17e5b" d="M31,74c-0.3,0-0.5-0.2-0.5-0.5v-5c0-0.3,0.2-0.5,0.5-0.5s0.5,0.2,0.5,0.5v5C31.5,73.8,31.3,74,31,74z"/><path id="XMLID_1043_" fill="#f17e5b" d="M79,59c-0.3,0-0.5-0.2-0.5-0.5v-2c0-0.3,0.2-0.5,0.5-0.5s0.5,0.2,0.5,0.5v2C79.5,58.8,79.3,59,79,59z"/><path id="XMLID_1042_" fill="#f17e5b" d="M79,66c-0.3,0-0.5-0.2-0.5-0.5v-2c0-0.3,0.2-0.5,0.5-0.5s0.5,0.2,0.5,0.5v2C79.5,65.8,79.3,66,79,66z"/><path id="XMLID_1041_" fill="#f17e5b" d="M79,74c-0.3,0-0.5-0.2-0.5-0.5v-3c0-0.3,0.2-0.5,0.5-0.5s0.5,0.2,0.5,0.5v3C79.5,73.8,79.3,74,79,74z"/><path id="XMLID_1040_" fill="#f17e5b" d="M65,56c-0.3,0-0.5-0.2-0.5-0.5v-3c0-0.3,0.2-0.5,0.5-0.5s0.5,0.2,0.5,0.5v3C65.5,55.8,65.3,56,65,56z"/><path id="XMLID_1039_" fill="#f17e5b" d="M65,64c-0.3,0-0.5-0.2-0.5-0.5v-3c0-0.3,0.2-0.5,0.5-0.5s0.5,0.2,0.5,0.5v3C65.5,63.8,65.3,64,65,64z"/><path id="XMLID_1038_" fill="#f17e5b" d="M65,74c-0.3,0-0.5-0.2-0.5-0.5v-5c0-0.3,0.2-0.5,0.5-0.5s0.5,0.2,0.5,0.5v5C65.5,73.8,65.3,74,65,74z"/><path id="XMLID_1037_" fill="#f17e5b" d="M69,57c-0.3,0-0.5-0.2-0.5-0.5v-3c0-0.3,0.2-0.5,0.5-0.5s0.5,0.2,0.5,0.5v3C69.5,56.8,69.3,57,69,57z"/><path id="XMLID_1036_" fill="#f17e5b" d="M65,48c-0.3,0-0.5-0.2-0.5-0.5v-4c0-0.3,0.2-0.5,0.5-0.5s0.5,0.2,0.5,0.5v4C65.5,47.8,65.3,48,65,48z"/><path id="XMLID_1035_" fill="#f17e5b" d="M69,49c-0.3,0-0.5-0.2-0.5-0.5v-2c0-0.3,0.2-0.5,0.5-0.5s0.5,0.2,0.5,0.5v2C69.5,48.8,69.3,49,69,49z"/><path id="XMLID_1034_" fill="#f17e5b" d="M69,64c-0.3,0-0.5-0.2-0.5-0.5v-2c0-0.3,0.2-0.5,0.5-0.5s0.5,0.2,0.5,0.5v2C69.5,63.8,69.3,64,69,64z"/><path id="XMLID_1033_" fill="#f17e5b" d="M69,74c-0.3,0-0.5-0.2-0.5-0.5v-5c0-0.3,0.2-0.5,0.5-0.5s0.5,0.2,0.5,0.5v5C69.5,73.8,69.3,74,69,74z"/><path id="XMLID_1032_" fill="#f17e5b" d="M21,88c-0.3,0-0.5-0.2-0.5-0.5v-8c0-0.3,0.2-0.5,0.5-0.5s0.5,0.2,0.5,0.5v8C21.5,87.8,21.3,88,21,88z"/><path id="XMLID_1031_" fill="#f17e5b" d="M55,88c-0.3,0-0.5-0.2-0.5-0.5v-8c0-0.3,0.2-0.5,0.5-0.5s0.5,0.2,0.5,0.5v8C55.5,87.8,55.3,88,55,88z"/><path id="XMLID_1030_" fill="#f17e5b" d="M65,88c-0.3,0-0.5-0.2-0.5-0.5v-8c0-0.3,0.2-0.5,0.5-0.5s0.5,0.2,0.5,0.5v8C65.5,87.8,65.3,88,65,88z"/><path id="XMLID_1029_" fill="#f17e5b" d="M69,88c-0.3,0-0.5-0.2-0.5-0.5v-8c0-0.3,0.2-0.5,0.5-0.5s0.5,0.2,0.5,0.5v8C69.5,87.8,69.3,88,69,88z"/><path id="XMLID_1028_" fill="#f17e5b" d="M79,88c-0.3,0-0.5-0.2-0.5-0.5v-8c0-0.3,0.2-0.5,0.5-0.5s0.5,0.2,0.5,0.5v8C79.5,87.8,79.3,88,79,88z"/><path id="XMLID_1027_" fill="#594454" d="M61,86h-2c-0.3,0-0.5-0.2-0.5-0.5v-4c0-0.3,0.2-0.5,0.5-0.5h2c0.3,0,0.5,0.2,0.5,0.5v4     C61.5,85.8,61.3,86,61,86z M59.5,85h1v-3h-1V85z"/><path id="XMLID_1026_" fill="#594454" d="M63,80c-0.3,0-0.5-0.2-0.5-0.5c0-0.3-0.2-0.5-0.5-0.5c-0.1,0-0.2,0-0.3,0.1c-0.1,0.1-0.3,0.1-0.5,0     C61.1,79.1,61,79,61,78.8c-0.1-0.5-0.5-0.8-1-0.8c-0.5,0-0.9,0.3-1,0.8c0,0.2-0.1,0.3-0.3,0.4c-0.2,0.1-0.3,0-0.5,0     C58.2,79,58.1,79,58,79c-0.3,0-0.5,0.2-0.5,0.5c0,0.3-0.2,0.5-0.5,0.5s-0.5-0.2-0.5-0.5c0-0.9,0.9-1.7,1.8-1.5c0.3-0.6,1-1,1.7-1     s1.4,0.4,1.7,1c0.9-0.2,1.8,0.6,1.8,1.5C63.5,79.8,63.3,80,63,80z"/><path id="XMLID_1025_" fill="#594454" d="M77,91h-6c-0.3,0-0.5-0.2-0.5-0.5v-16c0-0.3,0.2-0.5,0.5-0.5h6c0.3,0,0.5,0.2,0.5,0.5v16     C77.5,90.8,77.3,91,77,91z M71.5,90h5V75h-5V90z"/><path id="XMLID_1024_" fill="#594454" d="M75,86h-2c-0.3,0-0.5-0.2-0.5-0.5v-4c0-0.3,0.2-0.5,0.5-0.5h2c0.3,0,0.5,0.2,0.5,0.5v4     C75.5,85.8,75.3,86,75,86z M73.5,85h1v-3h-1V85z"/><path id="XMLID_1023_" fill="#594454" d="M77,80c-0.3,0-0.5-0.2-0.5-0.5c0-0.3-0.2-0.5-0.5-0.5c-0.1,0-0.2,0-0.3,0.1c-0.1,0.1-0.3,0.1-0.5,0     C75.1,79.1,75,79,75,78.8c-0.1-0.5-0.5-0.8-1-0.8c-0.5,0-0.9,0.3-1,0.8c0,0.2-0.1,0.3-0.3,0.4c-0.1,0.1-0.3,0-0.5,0     C72.2,79,72.1,79,72,79c-0.3,0-0.5,0.2-0.5,0.5c0,0.3-0.2,0.5-0.5,0.5s-0.5-0.2-0.5-0.5c0-0.9,0.9-1.7,1.8-1.5c0.3-0.6,1-1,1.7-1     s1.4,0.4,1.7,1c0.9-0.2,1.8,0.6,1.8,1.5C77.5,79.8,77.3,80,77,80z"/><path id="XMLID_1021_" fill="#594454" d="M43,80c-0.3,0-0.5-0.2-0.5-0.5c0-0.3-0.2-0.5-0.5-0.5c-0.1,0-0.2,0-0.3,0.1c-0.1,0.1-0.3,0.1-0.5,0     C41.1,79.1,41,79,41,78.8c-0.1-0.5-0.5-0.8-1-0.8c-0.5,0-0.9,0.3-1,0.8c0,0.2-0.1,0.3-0.3,0.4c-0.2,0.1-0.3,0-0.5,0     C38.2,79,38.1,79,38,79c-0.3,0-0.5,0.2-0.5,0.5c0,0.3-0.2,0.5-0.5,0.5s-0.5-0.2-0.5-0.5c0-0.9,0.9-1.7,1.8-1.5c0.3-0.6,1-1,1.7-1     s1.4,0.4,1.7,1c0.9-0.2,1.8,0.6,1.8,1.5C43.5,79.8,43.3,80,43,80z"/><path id="XMLID_1020_" fill="#594454" d="M27,71h-2c-0.3,0-0.5-0.2-0.5-0.5v-1.9c0-0.5,0.3-0.9,0.7-1.2l0.6-0.3c0.2-0.1,0.3-0.1,0.5,0l0.6,0.3     c0.4,0.2,0.7,0.7,0.7,1.2v1.9C27.5,70.8,27.3,71,27,71z M25.5,70h1v-1.4c0-0.1-0.1-0.2-0.2-0.3L26,68.1l-0.3,0.2     c-0.1,0.1-0.2,0.2-0.2,0.3V70z"/><path id="XMLID_1019_" fill="#594454" d="M27,64h-2c-0.3,0-0.5-0.2-0.5-0.5v-1.9c0-0.5,0.3-0.9,0.7-1.2l0.6-0.3c0.2-0.1,0.3-0.1,0.5,0l0.6,0.3     c0.4,0.2,0.7,0.7,0.7,1.2v1.9C27.5,63.8,27.3,64,27,64z M25.5,63h1v-1.4c0-0.1-0.1-0.2-0.2-0.3L26,61.1l-0.3,0.2     c-0.1,0.1-0.2,0.2-0.2,0.3V63z"/><path id="XMLID_1018_" fill="#594454" d="M51,60h-2c-0.3,0-0.5-0.2-0.5-0.5v-1.9c0-0.5,0.3-0.9,0.7-1.2l0.6-0.3c0.2-0.1,0.3-0.1,0.5,0l0.6,0.3     c0.4,0.2,0.7,0.7,0.7,1.2v1.9C51.5,59.8,51.3,60,51,60z M49.5,59h1v-1.4c0-0.1-0.1-0.2-0.2-0.3L50,57.1l-0.3,0.2     c-0.1,0.1-0.2,0.2-0.2,0.3V59z"/><path id="XMLID_1017_" fill="#594454" d="M61,61h-2c-0.3,0-0.5-0.2-0.5-0.5v-1.9c0-0.5,0.3-0.9,0.7-1.2l0.6-0.3c0.2-0.1,0.3-0.1,0.5,0l0.6,0.3     c0.4,0.2,0.7,0.7,0.7,1.2v1.9C61.5,60.8,61.3,61,61,61z M59.5,60h1v-1.4c0-0.1-0.1-0.2-0.2-0.3L60,58.1l-0.3,0.2     c-0.1,0.1-0.2,0.2-0.2,0.3V60z"/><path id="XMLID_1016_" fill="#594454" d="M41,61h-2c-0.3,0-0.5-0.2-0.5-0.5v-1.9c0-0.5,0.3-0.9,0.7-1.2l0.6-0.3c0.2-0.1,0.3-0.1,0.5,0l0.6,0.3     c0.4,0.2,0.7,0.7,0.7,1.2v1.9C41.5,60.8,41.3,61,41,61z M39.5,60h1v-1.4c0-0.1-0.1-0.2-0.2-0.3L40,58.1l-0.3,0.2     c-0.1,0.1-0.2,0.2-0.2,0.3V60z"/><path id="XMLID_1015_" fill="#594454" d="M75,64h-2c-0.3,0-0.5-0.2-0.5-0.5v-1.9c0-0.5,0.3-0.9,0.7-1.2l0.6-0.3c0.2-0.1,0.3-0.1,0.5,0l0.6,0.3     c0.4,0.2,0.7,0.7,0.7,1.2v1.9C75.5,63.8,75.3,64,75,64z M73.5,63h1v-1.4c0-0.1-0.1-0.2-0.2-0.3L74,61.1l-0.3,0.2     c-0.1,0.1-0.2,0.2-0.2,0.3V63z"/><path id="XMLID_1014_" fill="#594454" d="M55,53c-0.3,0-0.5-0.2-0.5-0.5v-4c0-0.3,0.2-0.5,0.5-0.5s0.5,0.2,0.5,0.5v4C55.5,52.8,55.3,53,55,53z"/><path id="XMLID_1013_" fill="#594454" d="M55,63c-0.3,0-0.5-0.2-0.5-0.5v-5c0-0.3,0.2-0.5,0.5-0.5s0.5,0.2,0.5,0.5v5C55.5,62.8,55.3,63,55,63z"/><path id="XMLID_1012_" fill="#594454" d="M45,53c-0.3,0-0.5-0.2-0.5-0.5v-4c0-0.3,0.2-0.5,0.5-0.5s0.5,0.2,0.5,0.5v4C45.5,52.8,45.3,53,45,53z"/><path id="XMLID_1011_" fill="#594454" d="M55,44c-0.3,0-0.5-0.2-0.5-0.5v-5c0-0.3,0.2-0.5,0.5-0.5s0.5,0.2,0.5,0.5v5C55.5,43.8,55.3,44,55,44z"/><path id="XMLID_1010_" fill="#594454" d="M45,44c-0.3,0-0.5-0.2-0.5-0.5v-5c0-0.3,0.2-0.5,0.5-0.5s0.5,0.2,0.5,0.5v5C45.5,43.8,45.3,44,45,44z"/><path id="XMLID_1009_" fill="#594454" d="M45,63c-0.3,0-0.5-0.2-0.5-0.5v-5c0-0.3,0.2-0.5,0.5-0.5s0.5,0.2,0.5,0.5v5C45.5,62.8,45.3,63,45,63z"/><path id="XMLID_1008_" fill="#594454" d="M35,55c-0.3,0-0.5-0.2-0.5-0.5v-3c0-0.3,0.2-0.5,0.5-0.5s0.5,0.2,0.5,0.5v3C35.5,54.8,35.3,55,35,55z"/><path id="XMLID_1007_" fill="#594454" d="M35,63c-0.3,0-0.5-0.2-0.5-0.5v-3c0-0.3,0.2-0.5,0.5-0.5s0.5,0.2,0.5,0.5v3C35.5,62.8,35.3,63,35,63z"/><path id="XMLID_1006_" fill="#594454" d="M31,56c-0.3,0-0.5-0.2-0.5-0.5v-3c0-0.3,0.2-0.5,0.5-0.5s0.5,0.2,0.5,0.5v3C31.5,55.8,31.3,56,31,56z"/><path id="XMLID_1005_" fill="#594454" d="M35,47c-0.3,0-0.5-0.2-0.5-0.5v-4c0-0.3,0.2-0.5,0.5-0.5s0.5,0.2,0.5,0.5v4C35.5,46.8,35.3,47,35,47z"/><path id="XMLID_1004_" fill="#594454" d="M31,48c-0.3,0-0.5-0.2-0.5-0.5v-2c0-0.3,0.2-0.5,0.5-0.5s0.5,0.2,0.5,0.5v2C31.5,47.8,31.3,48,31,48z"/><path id="XMLID_1003_" fill="#594454" d="M31,63c-0.3,0-0.5-0.2-0.5-0.5v-2c0-0.3,0.2-0.5,0.5-0.5s0.5,0.2,0.5,0.5v2C31.5,62.8,31.3,63,31,63z"/><path id="XMLID_1002_" fill="#594454" d="M21,58c-0.3,0-0.5-0.2-0.5-0.5v-2c0-0.3,0.2-0.5,0.5-0.5s0.5,0.2,0.5,0.5v2C21.5,57.8,21.3,58,21,58z"/><path id="XMLID_1001_" fill="#594454" d="M21,65c-0.3,0-0.5-0.2-0.5-0.5v-2c0-0.3,0.2-0.5,0.5-0.5s0.5,0.2,0.5,0.5v2C21.5,64.8,21.3,65,21,65z"/><path id="XMLID_1000_" fill="#594454" d="M21,73c-0.3,0-0.5-0.2-0.5-0.5v-3c0-0.3,0.2-0.5,0.5-0.5s0.5,0.2,0.5,0.5v3C21.5,72.8,21.3,73,21,73z"/><path id="XMLID_999_" fill="#594454" d="M31,87c-0.3,0-0.5-0.2-0.5-0.5v-8c0-0.3,0.2-0.5,0.5-0.5s0.5,0.2,0.5,0.5v8C31.5,86.8,31.3,87,31,87z"/><g id="XMLID_998_"><path fill="#594454" d="M35,87c-0.3,0-0.5-0.2-0.5-0.5v-8c0-0.3,0.2-0.5,0.5-0.5s0.5,0.2,0.5,0.5v8C35.5,86.8,35.3,87,35,87z"/></g><g id="XMLID_997_"><path fill="#594454" d="M45,87c-0.3,0-0.5-0.2-0.5-0.5v-8c0-0.3,0.2-0.5,0.5-0.5s0.5,0.2,0.5,0.5v8C45.5,86.8,45.3,87,45,87z"/></g><g id="XMLID_996_"><path fill="#594454" d="M79,65c-0.3,0-0.5-0.2-0.5-0.5v-2c0-0.3,0.2-0.5,0.5-0.5s0.5,0.2,0.5,0.5v2C79.5,64.8,79.3,65,79,65z"/></g><g id="XMLID_995_"><path fill="#594454" d="M79,73c-0.3,0-0.5-0.2-0.5-0.5v-3c0-0.3,0.2-0.5,0.5-0.5s0.5,0.2,0.5,0.5v3C79.5,72.8,79.3,73,79,73z"/></g><g id="XMLID_994_"><path fill="#594454" d="M21,87c-0.3,0-0.5-0.2-0.5-0.5v-8c0-0.3,0.2-0.5,0.5-0.5s0.5,0.2,0.5,0.5v8C21.5,86.8,21.3,87,21,87z"/></g><g id="XMLID_993_"><path fill="#594454" d="M55,87c-0.3,0-0.5-0.2-0.5-0.5v-8c0-0.3,0.2-0.5,0.5-0.5s0.5,0.2,0.5,0.5v8C55.5,86.8,55.3,87,55,87z"/></g><g id="XMLID_992_"><path fill="#594454" d="M65,87c-0.3,0-0.5-0.2-0.5-0.5v-8c0-0.3,0.2-0.5,0.5-0.5s0.5,0.2,0.5,0.5v8C65.5,86.8,65.3,87,65,87z"/></g><g id="XMLID_991_"><path fill="#594454" d="M69,87c-0.3,0-0.5-0.2-0.5-0.5v-8c0-0.3,0.2-0.5,0.5-0.5s0.5,0.2,0.5,0.5v8C69.5,86.8,69.3,87,69,87z"/></g><g id="XMLID_990_"><path fill="#594454" d="M79,87c-0.3,0-0.5-0.2-0.5-0.5v-8c0-0.3,0.2-0.5,0.5-0.5s0.5,0.2,0.5,0.5v8C79.5,86.8,79.3,87,79,87z"/></g><g id="XMLID_989_"><path fill="#594454" d="M55,73c-0.3,0-0.5-0.2-0.5-0.5v-5c0-0.3,0.2-0.5,0.5-0.5s0.5,0.2,0.5,0.5v5C55.5,72.8,55.3,73,55,73z"/></g><g id="XMLID_988_"><path fill="#594454" d="M45,73c-0.3,0-0.5-0.2-0.5-0.5v-5c0-0.3,0.2-0.5,0.5-0.5s0.5,0.2,0.5,0.5v5C45.5,72.8,45.3,73,45,73z"/></g><g id="XMLID_987_"><path fill="#594454" d="M35,73c-0.3,0-0.5-0.2-0.5-0.5v-5c0-0.3,0.2-0.5,0.5-0.5s0.5,0.2,0.5,0.5v5C35.5,72.8,35.3,73,35,73z"/></g><g id="XMLID_986_"><path fill="#594454" d="M31,73c-0.3,0-0.5-0.2-0.5-0.5v-5c0-0.3,0.2-0.5,0.5-0.5s0.5,0.2,0.5,0.5v5C31.5,72.8,31.3,73,31,73z"/></g><g id="XMLID_985_"><path fill="#594454" d="M79,58c-0.3,0-0.5-0.2-0.5-0.5v-2c0-0.3,0.2-0.5,0.5-0.5s0.5,0.2,0.5,0.5v2C79.5,57.8,79.3,58,79,58z"/></g><g id="XMLID_984_"><path fill="#594454" d="M65,55c-0.3,0-0.5-0.2-0.5-0.5v-3c0-0.3,0.2-0.5,0.5-0.5s0.5,0.2,0.5,0.5v3C65.5,54.8,65.3,55,65,55z"/></g><g id="XMLID_983_"><path fill="#594454" d="M65,63c-0.3,0-0.5-0.2-0.5-0.5v-3c0-0.3,0.2-0.5,0.5-0.5s0.5,0.2,0.5,0.5v3C65.5,62.8,65.3,63,65,63z"/></g><g id="XMLID_982_"><path fill="#594454" d="M65,73c-0.3,0-0.5-0.2-0.5-0.5v-5c0-0.3,0.2-0.5,0.5-0.5s0.5,0.2,0.5,0.5v5C65.5,72.8,65.3,73,65,73z"/></g><g id="XMLID_981_"><path fill="#594454" d="M69,56c-0.3,0-0.5-0.2-0.5-0.5v-3c0-0.3,0.2-0.5,0.5-0.5s0.5,0.2,0.5,0.5v3C69.5,55.8,69.3,56,69,56z"/></g><g id="XMLID_980_"><path fill="#594454" d="M65,47c-0.3,0-0.5-0.2-0.5-0.5v-4c0-0.3,0.2-0.5,0.5-0.5s0.5,0.2,0.5,0.5v4C65.5,46.8,65.3,47,65,47z"/></g><g id="XMLID_979_"><path fill="#594454" d="M69,48c-0.3,0-0.5-0.2-0.5-0.5v-2c0-0.3,0.2-0.5,0.5-0.5s0.5,0.2,0.5,0.5v2C69.5,47.8,69.3,48,69,48z"/></g><g id="XMLID_978_"><path fill="#594454" d="M69,63c-0.3,0-0.5-0.2-0.5-0.5v-2c0-0.3,0.2-0.5,0.5-0.5s0.5,0.2,0.5,0.5v2C69.5,62.8,69.3,63,69,63z"/></g><g id="XMLID_977_"><path fill="#594454" d="M69,73c-0.3,0-0.5-0.2-0.5-0.5v-5c0-0.3,0.2-0.5,0.5-0.5s0.5,0.2,0.5,0.5v5C69.5,72.8,69.3,73,69,73z"/></g></svg>